<?xml version="1.0" encoding="UTF-8" standalone="no"?>
<svg
   xmlns:dc="http://purl.org/dc/elements/1.1/"
   xmlns:cc="http://creativecommons.org/ns#"
   xmlns:rdf="http://www.w3.org/1999/02/22-rdf-syntax-ns#"
   xmlns:svg="http://www.w3.org/2000/svg"
   xmlns="http://www.w3.org/2000/svg"
   xmlns:xlink="http://www.w3.org/1999/xlink"
   xmlns:sodipodi="http://sodipodi.sourceforge.net/DTD/sodipodi-0.dtd"
   xmlns:inkscape="http://www.inkscape.org/namespaces/inkscape"
   id="8abbfe23-26e0-4ef7-83d7-6944c41cdadc"
   data-name="Layer 1"
   width="829"
   height="744.16"
   viewBox="0 0 829 744.16"
   version="1.1"
   sodipodi:docname="knowledge_orbitting.svg"
   inkscape:version="1.0.1 (1.0.1+r74)">
  <metadata
     id="metadata154">
    <rdf:RDF>
      <cc:Work
         rdf:about="">
        <dc:format>image/svg+xml</dc:format>
        <dc:type
           rdf:resource="http://purl.org/dc/dcmitype/StillImage" />
      </cc:Work>
    </rdf:RDF>
  </metadata>
  <sodipodi:namedview
     pagecolor="#ffffff"
     bordercolor="#666666"
     borderopacity="1"
     objecttolerance="10"
     gridtolerance="10"
     guidetolerance="10"
     inkscape:pageopacity="0"
     inkscape:pageshadow="2"
     inkscape:window-width="1920"
     inkscape:window-height="1008"
     id="namedview152"
     showgrid="false"
     inkscape:zoom="0.77693512"
     inkscape:cx="146.07122"
     inkscape:cy="465.78221"
     inkscape:window-x="0"
     inkscape:window-y="0"
     inkscape:window-maximized="1"
     inkscape:current-layer="layer1" />
  <defs
     id="defs13">
    <linearGradient
       id="8d3987ee-7da6-4397-b7c6-fc969519ed63"
       x1="382.9"
       y1="692.59"
       x2="382.9"
       y2="45.25"
       gradientUnits="userSpaceOnUse">
      <stop
         offset="0"
         stop-color="gray"
         stop-opacity="0.25"
         id="stop2" />
      <stop
         offset="0.54"
         stop-color="gray"
         stop-opacity="0.12"
         id="stop4" />
      <stop
         offset="1"
         stop-color="gray"
         stop-opacity="0.1"
         id="stop6" />
    </linearGradient>
    <linearGradient
       id="41a98616-cc8d-45ca-bf5b-bcdeacba7b4f"
       x1="577.21"
       y1="539.76"
       x2="577.21"
       y2="383.34"
       xlink:href="#8d3987ee-7da6-4397-b7c6-fc969519ed63"
       gradientTransform="matrix(0.70860496,0,0,0.70860496,846.73978,177.13033)" />
    <linearGradient
       id="cbeba5be-4290-4dae-bc1b-44a303762a01"
       x1="422.99"
       y1="586.26"
       x2="422.99"
       y2="284.95"
       xlink:href="#8d3987ee-7da6-4397-b7c6-fc969519ed63"
       gradientTransform="matrix(0.70860496,0,0,0.70860496,846.73978,177.13033)" />
    <linearGradient
       id="d7c56f50-4219-4953-bdbb-ce8107747d0c"
       x1="809.48"
       y1="657.06"
       x2="809.48"
       y2="582.42"
       xlink:href="#8d3987ee-7da6-4397-b7c6-fc969519ed63"
       gradientTransform="matrix(1.3125242,-0.09391768,0.18125174,1.8658653,207.09145,-513.4819)" />
    <linearGradient
       id="65800a0c-0f7d-440b-866d-d9a2d0291c31"
       x1="728.61"
       y1="677.75"
       x2="728.61"
       y2="553.95"
       gradientTransform="rotate(-62.55,522.90116,875.82011)"
       xlink:href="#8d3987ee-7da6-4397-b7c6-fc969519ed63" />
    <linearGradient
       id="65800a0c-0f7d-440b-866d-d9a2d0291c31-9"
       x1="728.61"
       y1="677.75"
       x2="728.61"
       y2="553.95"
       gradientTransform="matrix(0.32664873,-0.62882557,0.62882557,0.32664873,697.63514,865.61801)"
       xlink:href="#8d3987ee-7da6-4397-b7c6-fc969519ed63" />
    <linearGradient
       inkscape:collect="always"
       xlink:href="#8d3987ee-7da6-4397-b7c6-fc969519ed63"
       id="linearGradient1671"
       gradientUnits="userSpaceOnUse"
       x1="382.9"
       y1="692.59"
       x2="382.9"
       y2="45.25"
       gradientTransform="matrix(0.70860496,0,0,0.70860496,977.8317,231.60079)" />
  </defs>
  <title
     id="title15">startman1</title>
  <g
     inkscape:groupmode="layer"
     id="layer1"
     inkscape:label="Layer 1">
    <g
       opacity="0.5"
       id="g43"
       transform="translate(191.10994,50.718849)">
      <rect
         x="94.379997"
         y="661.70001"
         width="3.22"
         height="18.23"
         fill="#47e6b1"
         id="rect39" />
      <rect
         x="279.38"
         y="738.56"
         width="3.22"
         height="18.23"
         transform="rotate(90,226.915,616.745)"
         fill="#47e6b1"
         id="rect41" />
    </g>
    <g
       opacity="0.5"
       id="g49"
       transform="translate(-255.48882,39.729285)">
      <rect
         x="748.57001"
         y="3.22"
         width="3.22"
         height="18.23"
         fill="#47e6b1"
         id="rect45" />
      <rect
         x="933.57001"
         y="80.080002"
         width="3.22"
         height="18.23"
         transform="rotate(90,881.105,-41.735)"
         fill="#47e6b1"
         id="rect47" />
    </g>
    <g
       opacity="0.5"
       id="g55"
       transform="translate(-3.0743328,80.433649)">
      <rect
         x="818.28003"
         y="500.82999"
         width="3.22"
         height="18.23"
         fill="#47e6b1"
         id="rect51" />
      <rect
         x="1003.28"
         y="577.70001"
         width="3.22"
         height="18.23"
         transform="rotate(90,950.82,455.88)"
         fill="#47e6b1"
         id="rect53" />
    </g>
    <path
       d="m 482.06849,185.87372 a 3.94,3.94 0 0 1 -2.2,-4.76 1.89,1.89 0 0 0 0.09,-0.44 v 0 a 2,2 0 0 0 -3.55,-1.31 v 0 a 1.89,1.89 0 0 0 -0.22,0.39 3.94,3.94 0 0 1 -4.76,2.2 1.89,1.89 0 0 0 -0.44,-0.09 v 0 a 2,2 0 0 0 -1.31,3.55 v 0 a 1.89,1.89 0 0 0 0.39,0.22 3.94,3.94 0 0 1 2.2,4.76 1.89,1.89 0 0 0 -0.09,0.44 v 0 a 2,2 0 0 0 3.55,1.31 v 0 a 1.89,1.89 0 0 0 0.22,-0.39 3.94,3.94 0 0 1 4.76,-2.2 1.89,1.89 0 0 0 0.44,0.09 v 0 a 2,2 0 0 0 1.31,-3.55 v 0 a 1.89,1.89 0 0 0 -0.39,-0.22 z"
       fill="#4d8af0"
       opacity="0.5"
       id="path63" />
    <path
       d="m 499.63234,726.37967 a 3.94,3.94 0 0 1 -2.2,-4.76 1.89,1.89 0 0 0 0.09,-0.44 v 0 a 2,2 0 0 0 -3.55,-1.31 v 0 a 1.89,1.89 0 0 0 -0.22,0.39 3.94,3.94 0 0 1 -4.76,2.2 1.89,1.89 0 0 0 -0.44,-0.09 v 0 a 2,2 0 0 0 -1.31,3.55 v 0 a 1.89,1.89 0 0 0 0.39,0.22 3.94,3.94 0 0 1 2.2,4.76 1.89,1.89 0 0 0 -0.09,0.44 v 0 a 2,2 0 0 0 3.55,1.31 v 0 a 1.89,1.89 0 0 0 0.22,-0.39 3.94,3.94 0 0 1 4.76,-2.2 1.89,1.89 0 0 0 0.44,0.09 v 0 a 2,2 0 0 0 1.31,-3.55 v 0 a 1.89,1.89 0 0 0 -0.39,-0.22 z"
       fill="#4d8af0"
       opacity="0.5"
       id="path65" />
    <path
       d="m 814.09929,409.54321 a 3.94,3.94 0 0 1 -2.19996,-4.76 1.89,1.89 0 0 0 0.09,-0.44 v 0 a 2,2 0 0 0 -3.55,-1.31 v 0 a 1.89,1.89 0 0 0 -0.22,0.39 3.94,3.94 0 0 1 -4.76,2.2 1.89,1.89 0 0 0 -0.44,-0.09 v 0 a 2,2 0 0 0 -1.31,3.55 v 0 a 1.89,1.89 0 0 0 0.39,0.22 3.94,3.94 0 0 1 2.2,4.76 1.89,1.89 0 0 0 -0.09,0.44 v 0 a 2,2 0 0 0 3.55,1.31 v 0 a 1.89,1.89 0 0 0 0.22,-0.39 3.94,3.94 0 0 1 4.75996,-2.2 1.89,1.89 0 0 0 0.44,0.09 v 0 a 2,2 0 0 0 1.31,-3.55 v 0 a 1.89,1.89 0 0 0 -0.39,-0.22 z"
       fill="#4d8af0"
       opacity="0.5"
       id="path67" />
    <path
       d="m 186.8659,41.322736 a 3.94,3.94 0 0 1 -2.2,-4.76 1.89,1.89 0 0 0 0.09,-0.44 v 0 a 2,2 0 0 0 -3.55,-1.31 v 0 a 1.89,1.89 0 0 0 -0.22,0.39 3.94,3.94 0 0 1 -4.76,2.2 1.89,1.89 0 0 0 -0.44,-0.09 v 0 a 2,2 0 0 0 -1.31,3.55 v 0 a 1.89,1.89 0 0 0 0.39,0.22 3.94,3.94 0 0 1 2.2,4.76 1.89,1.89 0 0 0 -0.09,0.44 v 0 a 2,2 0 0 0 3.55,1.31 v 0 a 1.89,1.89 0 0 0 0.22,-0.39 3.94,3.94 0 0 1 4.76,-2.2 1.89,1.89 0 0 0 0.44,0.09 v 0 a 2,2 0 0 0 1.31,-3.55 v 0 a 1.89,1.89 0 0 0 -0.39,-0.22 z"
       fill="#4d8af0"
       opacity="0.5"
       id="path69" />
    <circle
       cx="174.48482"
       cy="250.58147"
       r="6.4299998"
       fill="#f55f44"
       opacity="0.5"
       id="circle71" />
    <circle
       cx="55.847595"
       cy="607.25598"
       r="6.4299998"
       fill="#47e6b1"
       opacity="0.5"
       id="circle75" />
    <circle
       cx="716.72156"
       cy="54.41983"
       r="6.4299998"
       fill="#f55f44"
       opacity="0.5"
       id="circle77" />
    <path
       id="circle8"
       style="fill:#f2f2f2"
       d="m 692.38467,182.60386 a 71.883133,71.883133 0 0 1 -71.88313,71.88313 71.883133,71.883133 0 0 1 -71.88313,-71.88313 71.883133,71.883133 0 0 1 71.88313,-71.88314 71.883133,71.883133 0 0 1 71.88313,71.88314 z" />
    <path
       id="circle10"
       style="fill:#ff6584"
       d="m 365.61472,94.610556 a 6.1614099,6.1614099 0 0 1 -6.16141,6.161414 6.1614099,6.1614099 0 0 1 -6.16141,-6.161414 6.1614099,6.1614099 0 0 1 6.16141,-6.16141 6.1614099,6.1614099 0 0 1 6.16141,6.16141 z" />
    <path
       id="circle14"
       style="fill:#f2f2f2"
       d="m 619.88591,36.783784 a 6.1614099,6.1614099 0 0 1 -6.16141,6.16141 6.1614099,6.1614099 0 0 1 -6.16141,-6.16141 6.1614099,6.1614099 0 0 1 6.16141,-6.16141 6.1614099,6.1614099 0 0 1 6.16141,6.16141 z" />
    <path
       id="circle16"
       style="fill:#f2f2f2"
       d="m 694.45377,367.04631 a 6.1614099,6.1614099 0 0 1 -6.16141,6.16141 6.1614099,6.1614099 0 0 1 -6.16141,-6.16141 6.1614099,6.1614099 0 0 1 6.16141,-6.16141 6.1614099,6.1614099 0 0 1 6.16141,6.16141 z" />
    <path
       id="circle18"
       style="fill:#f2f2f2"
       d="m 31.631524,18.130458 a 6.1614099,6.1614099 0 0 1 -6.16141,6.16141 6.1614099,6.1614099 0 0 1 -6.16141,-6.16141 6.1614099,6.1614099 0 0 1 6.16141,-6.16141 6.1614099,6.1614099 0 0 1 6.16141,6.16141 z" />
    <path
       id="circle20"
       style="fill:#f2f2f2"
       d="m 136.35824,684.72468 a 6.1614099,6.1614099 0 0 1 -6.16141,6.16141 6.1614099,6.1614099 0 0 1 -6.16141,-6.16141 6.1614099,6.1614099 0 0 1 6.16141,-6.16141 6.1614099,6.1614099 0 0 1 6.16141,6.16141 z" />
    <path
       id="circle28"
       style="opacity:0.108742;stroke-width:0.708605"
       d="m 217.68585,519.72212 a 9.4596778,9.4596778 0 0 1 -9.45968,9.45968 9.4596778,9.4596778 0 0 1 -9.45968,-9.45968 9.4596778,9.4596778 0 0 1 9.45968,-9.45968 9.4596778,9.4596778 0 0 1 9.45968,9.45968 z" />
    <path
       id="circle30"
       style="opacity:0.1071644"
       d="m 614.56802,145.52537 a 7.0966301,7.0966301 0 0 1 -7.09663,7.09663 7.0966301,7.0966301 0 0 1 -7.09663,-7.09663 7.0966301,7.0966301 0 0 1 7.09663,-7.09663 7.0966301,7.0966301 0 0 1 7.09663,7.09663 z" />
    <path
       id="circle36"
       style="opacity:0.2"
       d="m 607.74825,203.33656 a 7.0966301,7.0966301 0 0 1 -7.09663,7.09663 7.0966301,7.0966301 0 0 1 -7.09663,-7.09663 7.0966301,7.0966301 0 0 1 7.09663,-7.09663 7.0966301,7.0966301 0 0 1 7.09663,7.09663 z" />
    <path
       id="circle40"
       style="opacity:0.06631692;stroke-width:1.19166"
       d="m 665.30835,179.49481 a 12.057456,12.375305 0 0 1 -12.05745,12.3753 12.057456,12.375305 0 0 1 -12.05746,-12.3753 12.057456,12.375305 0 0 1 12.05746,-12.37531 12.057456,12.375305 0 0 1 12.05745,12.37531 z" />
    <path
       id="circle88"
       style="fill:#79e08f"
       d="m 822.12785,252.30738 a 7.27772,7.27772 0 0 1 -7.2778,7.27772 7.27772,7.27772 0 0 1 -7.2777,-7.27772 7.27772,7.27772 0 0 1 7.2777,-7.27772 7.27772,7.27772 0 0 1 7.2778,7.27772 z" />
    <g
       opacity="0.5"
       id="g61"
       transform="translate(-72.780892,43.107625)">
      <rect
         x="105.1"
         y="47.189999"
         width="3.22"
         height="18.23"
         fill="#47e6b1"
         id="rect57" />
      <rect
         x="290.10001"
         y="124.05"
         width="3.22"
         height="18.23"
         transform="rotate(90,237.64,2.24)"
         fill="#47e6b1"
         id="rect59" />
    </g>
    <g
       id="g1669"
       transform="translate(-962.3741,-74.274265)">
      <circle
         cx="1249.1565"
         cy="493.01935"
         r="229.35417"
         fill="url(#8d3987ee-7da6-4397-b7c6-fc969519ed63)"
         id="circle1462"
         style="fill:url(#linearGradient1671);stroke-width:0.708605" />
      <circle
         cx="1249.1565"
         cy="493.01935"
         r="223.72786"
         fill="#79e08f"
         id="circle1464"
         style="stroke-width:0.708605" />
      <circle
         cx="1176.8151"
         cy="363.70602"
         r="27.791487"
         opacity="0.05"
         id="circle1466"
         style="stroke-width:0.708605" />
      <circle
         cx="1123.5896"
         cy="601.90338"
         r="27.791487"
         opacity="0.05"
         id="circle1468"
         style="stroke-width:0.708605" />
      <circle
         cx="1289.6108"
         cy="461.21005"
         r="56.823032"
         opacity="0.05"
         id="circle1470"
         style="stroke-width:0.708605" />
      <path
         d="m 1339.0289,559.60694 c -28.1457,0 -58.1056,-1.34635 -88.7315,-4.05322 -68.0756,-6.00897 -131.5312,-18.00565 -178.6676,-33.77211 -47.4766,-15.89401 -72.84465,-33.85006 -71.3707,-50.55897 0.744,-8.46074 8.1985,-16.01447 22.1439,-22.4486 l 0.7086,1.59436 c -13.336,6.15069 -20.4433,13.21548 -21.1306,21.01013 -0.6874,7.79466 5.2082,16.18454 17.5379,24.67363 12.1172,8.34028 29.8253,16.43255 52.6423,24.09257 47.016,15.73103 110.3227,27.69228 178.2709,33.68708 67.9481,5.9948 132.3745,5.30745 181.4028,-1.94158 23.795,-3.54302 42.651,-8.38988 56.0436,-14.4768 13.6336,-6.19321 20.8968,-13.33594 21.5912,-21.22272 0.7936,-8.97802 -7.3199,-18.82055 -23.4548,-28.45757 l 0.8999,-1.50933 c 17.0065,10.15431 25.1767,20.28736 24.3052,30.1228 -1.4739,16.71599 -29.5772,29.95273 -79.1229,37.27262 -26.9766,3.97527 -58.7008,5.98062 -93.0682,5.98771 z"
         fill="url(#41a98616-cc8d-45ca-bf5b-bcdeacba7b4f)"
         id="path1472"
         style="fill:url(#41a98616-cc8d-45ca-bf5b-bcdeacba7b4f);stroke-width:0.708605" />
      <path
         d="m 1486.9148,486.22381 c 16.0924,9.61577 24.7374,19.6071 23.88,29.28664 -2.9691,33.63748 -119.3716,50.84241 -259.9943,38.42765 -140.6226,-12.41476 -252.21376,-49.74407 -249.2447,-83.38155 0.7086,-8.31193 8.397,-15.58931 21.6337,-21.72583"
         fill="none"
         stroke="#bdbdbd"
         stroke-miterlimit="10"
         stroke-width="2.12581"
         opacity="0.5"
         id="path1474" />
      <path
         d="m 1277.848,592.55707 c -20.2803,-8.74419 -40.9786,-18.50168 -61.514,-29.01029 -60.8479,-31.12193 -115.1625,-66.04907 -152.9382,-98.36145 -38.0663,-32.55331 -54.8177,-58.70792 -47.179,-73.6524 3.869,-7.5679 13.6123,-11.76993 28.9466,-12.49979 l 0.085,1.75025 c -14.6682,0.7086 -23.9084,4.57759 -27.4727,11.54317 -3.5642,6.96559 -1.2471,16.95692 7.0011,29.44963 8.0993,12.27304 21.4778,26.43096 39.7598,42.06279 37.6695,32.24152 91.8636,67.09072 152.591,98.14887 20.5071,10.48735 41.1629,20.23067 61.4148,28.96069 z"
         fill="url(#cbeba5be-4290-4dae-bc1b-44a303762a01)"
         id="path1476"
         style="fill:url(#cbeba5be-4290-4dae-bc1b-44a303762a01);stroke-width:0.708605" />
      <path
         d="m 1281.1147,591.74926 c -19.9048,-8.58121 -40.5252,-18.27492 -61.4644,-28.98194 -125.6853,-64.27756 -215.1042,-140.76438 -199.7275,-170.8234 3.7982,-7.42618 13.6407,-11.33768 28.2096,-12.04629"
         fill="none"
         stroke="#bdbdbd"
         stroke-miterlimit="10"
         stroke-width="2.12581"
         id="path1478" />
      <path
         d="m 1414.2363,574.2292 c 11.7012,17.3308 14.8747,30.94557 7.7296,39.14807 -16.3998,18.8366 -54.5705,15.8901 -140.8512,-21.62801"
         fill="none"
         stroke="#bdbdbd"
         stroke-miterlimit="10"
         stroke-width="2.45474"
         id="path1482" />
      <circle
         cx="1309.2965"
         cy="337.93997"
         r="9.0742702"
         opacity="0.05"
         id="circle1706"
         style="stroke-width:0.231368" />
      <circle
         cx="1127.8491"
         cy="448.8114"
         r="9.0742702"
         opacity="0.05"
         id="circle1708"
         style="stroke-width:0.231368" />
      <ellipse
         cx="1428.2178"
         cy="488.32736"
         opacity="0.05"
         id="circle1710"
         style="stroke-width:0.372911"
         rx="14.401636"
         ry="14.853059" />
    </g>
    <g
       id="g1704"
       transform="matrix(1.0831327,0,0,1.0831327,-161.79674,171.35452)">
      <g
         id="g1213"
         transform="matrix(0.40632275,0,0,0.40632275,548.74494,362.13318)">
        <g
           id="g1744"
           transform="translate(-16.539377,-396.7214)">
          <path
             d="M 724,634.79 Z"
             transform="matrix(2.4610977,0,0,2.4610977,-1787.7413,-1368.5058)"
             fill="#4a5c81"
             id="path85" />
          <path
             id="circle12"
             style="fill:#ff6584"
             d="m 607.50832,693.00225 a 6.1614099,6.1614099 0 0 1 -6.16141,6.16141 6.1614099,6.1614099 0 0 1 -6.16141,-6.16141 6.1614099,6.1614099 0 0 1 6.16141,-6.16141 6.1614099,6.1614099 0 0 1 6.16141,6.16141 z"
             transform="matrix(2.4610977,0,0,2.4610977,-1332.4382,-1179.3212)" />
          <path
             d="m 265.36558,212.82328 a 4.77608,4.77608 0 0 0 -4.78143,4.75948 l -1.17461,510.43858 a 4.77609,4.77609 0 0 0 4.75948,4.78144 l 411.21267,0.94627 a 4.77609,4.77609 0 0 0 4.78143,-4.75948 L 681.33773,218.551 a 4.77608,4.77608 0 0 0 -4.75947,-4.78143 z"
             transform="translate(-226.3946,-164.99667)"
             fill="#e6e6e6"
             id="path979" />
          <path
             d="m 280.59565,228.12384 a 4.77609,4.77609 0 0 0 -4.78143,4.75948 L 274.70987,712.791 a 4.77607,4.77607 0 0 0 4.75947,4.78143 l 380.68224,0.876 A 4.77608,4.77608 0 0 0 664.933,713.689 l 1.10435,-479.90768 a 4.77608,4.77608 0 0 0 -4.75947,-4.78143 z"
             transform="translate(-226.3946,-164.99667)"
             fill="#ffffff"
             id="path981" />
          <path
             d="m 610.71032,436.51861 -280.5027,-0.64549 a 7.1557,7.1557 0 1 1 0.0329,-14.31136 l 280.5027,0.64549 a 7.1557,7.1557 0 0 1 -0.0329,14.31136 z"
             transform="translate(-226.3946,-164.99667)"
             fill="#e6e6e6"
             id="path983" />
          <path
             d="m 613.42553,303.19 -186.094,-0.42824 c -2.62183,-0.006 -4.73992,-3.21467 -4.73083,-7.1666 0.009,-3.95193 2.14193,-7.15079 4.76376,-7.14476 l 186.094,0.42824 c 2.62214,0.006 4.73992,3.21467 4.73083,7.1666 -0.009,3.95193 -2.14163,7.15076 -4.76376,7.14476 z"
             transform="translate(-226.3946,-164.99667)"
             fill="#e6e6e6"
             id="path985" />
          <path
             d="m 613.33112,344.21586 -186.094,-0.42823 c -2.62183,-0.006 -4.73992,-3.21468 -4.73083,-7.16661 0.009,-3.95193 2.14194,-7.15079 4.76377,-7.14475 l 186.094,0.42823 c 2.62214,0.006 4.73992,3.21468 4.73083,7.16661 -0.009,3.95193 -2.14163,7.15079 -4.76377,7.14475 z"
             transform="translate(-226.3946,-164.99667)"
             fill="#e6e6e6"
             id="path987" />
          <path
             d="m 610.60383,482.792 -280.5027,-0.64548 a 7.1557,7.1557 0 0 1 0.0329,-14.31136 l 280.50271,0.64548 a 7.1557,7.1557 0 0 1 -0.0329,14.31136 z"
             transform="translate(-226.3946,-164.99667)"
             fill="#e6e6e6"
             id="path989" />
          <path
             d="m 610.49735,529.06542 -280.5027,-0.64549 a 7.1557,7.1557 0 1 1 0.0329,-14.31136 l 280.5027,0.64549 a 7.1557,7.1557 0 1 1 -0.0329,14.31136 z"
             transform="translate(-226.3946,-164.99667)"
             fill="#e6e6e6"
             id="path991" />
          <path
             d="m 610.39087,575.33882 -280.5027,-0.64548 a 7.1557039,7.1557039 0 1 1 0.0329,-14.31137 l 280.5027,0.64549 a 7.1557,7.1557 0 0 1 -0.0329,14.31136 z"
             transform="translate(-226.3946,-164.99667)"
             fill="#e6e6e6"
             id="path993" />
          <path
             d="m 610.28438,621.61223 -280.5027,-0.64549 a 7.1557,7.1557 0 0 1 0.0329,-14.31136 l 280.5027,0.64549 a 7.1557,7.1557 0 0 1 -0.0329,14.31136 z"
             transform="translate(-226.3946,-164.99667)"
             fill="#e6e6e6"
             id="path995" />
          <path
             d="m 610.1779,667.88563 -280.5027,-0.64548 a 7.1557039,7.1557039 0 1 1 0.0329,-14.31137 l 280.5027,0.64549 a 7.1557,7.1557 0 1 1 -0.0329,14.31136 z"
             transform="translate(-226.3946,-164.99667)"
             fill="#e6e6e6"
             id="path997" />
          <circle
             cx="134.61891"
             cy="151.44682"
             r="37.686691"
             fill="#3f3d56"
             id="circle999" />
          <path
             d="M 418.80659,436.077"
             transform="translate(-226.3946,-164.99667)"
             fill="#e6e6e6"
             id="path1001" />
          <path
             d="m 354.97285,139.60278 -10e-4,-89.166686 a 50.44769,50.44769 0 0 0 -100.86823,-2.21847 h 11.1029 a 39.39479,39.39479 0 0 1 39.30744,-37.868339 c 0.19183,0 0.38636,0.002 0.57819,0.004 a 39.41934,39.41934 0 0 1 38.783,40.002279 v 89.293496 c 0.002,0.22759 0.002,0.45464 0,0.6611 a 26.425,26.425 0 0 1 -26.38749,26.07428 q -0.16255,0 -0.32513,-0.002 a 26.43823,26.43823 0 0 1 -26.07157,-26.77656 l 0.0607,-88.566286 a 13.29569,13.29569 0 0 1 26.58636,-0.0872 v 67.633996 a 5.548875,5.548875 0 1 0 11.09775,0 l -0.001,-67.721156 a 24.39255,24.39255 0 0 0 -48.78022,0.084 l -0.0608,88.586346 a 37.53446,37.53446 0 0 0 37.03439,37.94421 c 0.155,0.002 0.3067,0.003 0.46168,0.003 a 37.54415,37.54415 0 0 0 37.48307,-37.05769 c 0.002,-0.28936 0.002,-0.57927 -1e-5,-0.82203 z"
             fill="#79e08f"
             id="path1003"
             style="fill:#81c2d4;fill-opacity:1" />
        </g>
      </g>
    </g>
    <circle
       cx="674.51025"
       cy="645.85223"
       r="6.4299998"
       fill="#f55f44"
       opacity="0.5"
       id="circle1746" />
    <path
       id="path1748"
       style="fill:#f2f2f2"
       d="m 809.3409,720.3552 a 6.1614099,6.1614099 0 0 1 -6.16141,6.16141 6.1614099,6.1614099 0 0 1 -6.16141,-6.16141 6.1614099,6.1614099 0 0 1 6.16141,-6.16141 6.1614099,6.1614099 0 0 1 6.16141,6.16141 z" />
    <path
       id="path1752"
       style="fill:#ff6584"
       d="m 52.868621,720.25732 a 6.1614099,6.1614099 0 0 1 -6.16141,6.16142 6.1614099,6.1614099 0 0 1 -6.16141,-6.16142 6.1614099,6.1614099 0 0 1 6.16141,-6.16141 6.1614099,6.1614099 0 0 1 6.16141,6.16141 z" />
    <path
       id="path1754"
       style="fill:#f2f2f2"
       d="m 146.6098,143.94455 a 6.1614099,6.1614099 0 0 1 -6.16141,6.16141 6.1614099,6.1614099 0 0 1 -6.16141,-6.16141 6.1614099,6.1614099 0 0 1 6.16141,-6.16141 6.1614099,6.1614099 0 0 1 6.16141,6.16141 z" />
    <circle
       cx="9.5615444"
       cy="228.91528"
       r="6.4299998"
       fill="#f55f44"
       opacity="0.5"
       id="circle1756" />
  </g>
</svg>
