<?xml version="1.0" encoding="UTF-8" standalone="no"?>
<svg
   xmlns:osb="http://www.openswatchbook.org/uri/2009/osb"
   xmlns:dc="http://purl.org/dc/elements/1.1/"
   xmlns:cc="http://creativecommons.org/ns#"
   xmlns:rdf="http://www.w3.org/1999/02/22-rdf-syntax-ns#"
   xmlns:svg="http://www.w3.org/2000/svg"
   xmlns="http://www.w3.org/2000/svg"
   xmlns:sodipodi="http://sodipodi.sourceforge.net/DTD/sodipodi-0.dtd"
   xmlns:inkscape="http://www.inkscape.org/namespaces/inkscape"
   id="83aab131-a2df-4b7a-a8ff-47127cd1e4af"
   data-name="Layer 1"
   width="1118.03"
   height="826.45"
   viewBox="0 0 1118.03 826.45"
   version="1.1"
   sodipodi:docname="undraw_startled_8p0r.svg"
   inkscape:version="1.0.1 (1.0.1+r74)">
  <metadata
     id="metadata232">
    <rdf:RDF>
      <cc:Work
         rdf:about="">
        <dc:format>image/svg+xml</dc:format>
        <dc:type
           rdf:resource="http://purl.org/dc/dcmitype/StillImage" />
      </cc:Work>
    </rdf:RDF>
  </metadata>
  <sodipodi:namedview
     pagecolor="#ffffff"
     bordercolor="#666666"
     borderopacity="1"
     objecttolerance="10"
     gridtolerance="10"
     guidetolerance="10"
     inkscape:pageopacity="0"
     inkscape:pageshadow="2"
     inkscape:window-width="1920"
     inkscape:window-height="1008"
     id="namedview230"
     showgrid="false"
     inkscape:zoom="0.95732371"
     inkscape:cx="668.87787"
     inkscape:cy="303.02908"
     inkscape:window-x="0"
     inkscape:window-y="0"
     inkscape:window-maximized="1"
     inkscape:current-layer="g1129"
     inkscape:document-rotation="0" />
  <defs
     id="defs9">
    <linearGradient
       id="linearGradient3051"
       osb:paint="solid">
      <stop
         style="stop-color:#1b1a25;stop-opacity:1;"
         offset="0"
         id="stop3049" />
    </linearGradient>
    <linearGradient
       id="2c65cc85-6ec1-454a-a801-b7854259077c"
       x1="377.53"
       y1="611.1"
       x2="377.53"
       y2="84.18"
       gradientTransform="translate(256.63 -110.12) rotate(27.45)"
       gradientUnits="userSpaceOnUse">
      <stop
         offset="0"
         stop-color="gray"
         stop-opacity="0.25"
         id="stop2" />
      <stop
         offset="0.54"
         stop-color="gray"
         stop-opacity="0.12"
         id="stop4" />
      <stop
         offset="1"
         stop-color="gray"
         stop-opacity="0.1"
         id="stop6" />
    </linearGradient>
  </defs>
  <title
     id="title11">startled</title>
  <ellipse
     cx="741.34"
     cy="764.2"
     rx="314.09"
     ry="31.67"
     fill="#79e08f"
     opacity="0.1"
     id="ellipse13" />
  <path
     d="m 647.18669,108.32131 c -71.67,-2.08 -139.93998,-21.339997 -205.11998,-42.419997 -65.18,-21.08 -129.76,-44.41 -199.72,-55.58 -45,-7.1800002 -96.45,-8.2000002 -132.71,11.89 -34.879996,19.32 -46.159996,52.69 -52.219996,83.639997 -4.56,23.29 -7.24,47.81001 5.25,69.61001 8.68,15.14 24.08,27.86 34.73,42.36 37.069996,50.46 10.869996,112.67 -29.3,161.93 -18.84,23.11 -40.69,45.16 -55.23,69.76 -14.5399997,24.6 -21.2499997,52.81 -8.5399997,77.88 12.6099997,24.87 42.6499997,43.55 75.1999997,56.69 66.099996,26.69 143.999996,34.33 219.999996,38.65 168.09,9.59 337.08998,5.43 505.71998,1.28 62.39,-1.53 125,-3.09 186.43,-11.12 34.08001,-4.46 69.27001,-11.54 94.00001,-28.63 31.42,-21.7 39.2,-58.43 18.15,-85.64 -35.3,-45.63 -132.92001,-57 -157.60001,-105.93 -13.58,-26.95 0.37,-57 20.11,-82 42.34001,-53.62 113.32001,-100.67 117.06001,-162 2.57,-42.10001 -31.55,-84.260007 -84.31001,-104.180007 -55.3,-20.88 -132,-18.25 -172.79,16.31 -42,35.64 -115.82,49.329997 -179.11,47.499997 z"
     fill="#79e08f"
     opacity="0.1"
     id="path15" />
  <path
     d="M860.28,796.75c.24,12-99.15-2.28-95.43-12l-.52.15c-12.52,2.84-78.67-20.27-73.36-30.8C636.71,705.58,612.2,662,660.79,564.13a7.31,7.31,0,0,0,.38-2c0-.24.09-.48.13-.71.17-.86.33-1.72.5-2.58,0-.14.05-.27.08-.4s.09-.42.13-.63q2.1-10.83,4.67-21.75a593.81,593.81,0,0,1,35.75-107.43c.32-.69.62-1.38.94-2.06.18-.41.37-.82.56-1.22l1.23-2.68c.05-.12.11-.23.16-.35.2-.4.38-.8.57-1.19,12.62-27,26.74-50.7,41.59-70.17-7-4-29.63-34.54-24-58.62,6-25.56,38.81-35.32,46.95-33.43s9.9,24.16,3.94,49.72a139,139,0,0,1-5.29,17.58c26-25.74,53.22-38.06,78.1-32.27,20.64,4.81,37.19,21.51,49.07,46.81.24-1.17.51-2.35.78-3.54,6-25.56,17.37-44.75,25.52-42.86s35.58,30.15,29.62,55.71c-3.95,17-36,25.14-42.22,32.19,12.24,54.84,15.6,135.7,24.21,216.51C945.58,706.17,925.81,763.56,860.28,796.75Z"
     transform="translate(-40.99 -36.78)"
     fill="#79e08f"
     id="path107" />
  <path
     d="M846.72,440.78c-4.52,19.38-30.58,30.15-60.07,25.84q-3.84-.56-7.73-1.46-3.2-.75-6.25-1.69c-29.11-8.93-48.37-30.47-43.78-50.15,3.44-14.8,19.48-24.59,40-26.46a84.29,84.29,0,0,1,13.41-.09A92,92,0,0,1,796.68,389C829.22,396.53,851.62,419.73,846.72,440.78Z"
     transform="translate(-40.99 -36.78)"
     opacity="0.2"
     id="path109" />
  <ellipse
     cx="798.25"
     cy="444.46"
     rx="24.54"
     ry="36.27"
     transform="translate(143.26 1084.26) rotate(-76.88)"
     fill="#3f3d56"
     id="ellipse111" />
  <path
     d="M778.85,399c-4.37,10.45-7.32,7.79-11,6.27s-6.63-1.36-2.25-11.81a57.33,57.33,0,0,1,3.28-6.61,84.29,84.29,0,0,1,13.41-.09A48.31,48.31,0,0,1,778.85,399Z"
     transform="translate(-40.99 -36.78)"
     fill="#fff"
     id="path113" />
  <path
     d="M786.65,466.62q-3.84-.56-7.73-1.46-3.2-.75-6.25-1.69c2.35-10.75,6.09-11.61,9.88-10.83S788.82,455.69,786.65,466.62Z"
     transform="translate(-40.99 -36.78)"
     fill="#fff"
     id="path115" />
  <circle
     cx="766.16"
     cy="307.24"
     r="22.15"
     opacity="0.2"
     id="circle117" />
  <ellipse
     cx="751.02"
     cy="304.04"
     rx="17.01"
     ry="9.19"
     transform="translate(243.51 929.71) rotate(-76.88)"
     opacity="0.1"
     id="ellipse119" />
  <ellipse
     cx="920.99"
     cy="338.65"
     rx="17.01"
     ry="9.19"
     transform="translate(53.86 831.39) rotate(-52.85)"
     opacity="0.12"
     id="ellipse121" />
  <path
     d="M808,333.13a10.38,10.38,0,0,0-1.22-.21,6.13,6.13,0,0,1,.36,3.89,6.21,6.21,0,0,1-11.24,2,11,11,0,0,0-.87,2.39,10.8,10.8,0,1,0,13-8.07Z"
     transform="translate(-40.99 -36.78)"
     fill="#3f3d56"
     id="path123" />
  <path
     d="M776.34,373c-.92,3.95-2.08,2.62-3.8,2.22s-3.34.28-2.42-3.67,5.76-10.64,5.76-10.64S777.26,369.05,776.34,373Z"
     transform="translate(-40.99 -36.78)"
     opacity="0.2"
     id="path125" />
  <path
     d="M818.69,311.59c-.92,4-2.08,2.62-3.8,2.22s-3.34.28-2.42-3.67,5.76-10.64,5.76-10.64S819.61,307.63,818.69,311.59Z"
     transform="translate(-40.99 -36.78)"
     opacity="0.2"
     id="path127" />
  <path
     d="M858,337.5c-.92,3.95-2.08,2.62-3.8,2.22s-3.34.28-2.42-3.67,5.76-10.64,5.76-10.64S858.91,333.55,858,337.5Z"
     transform="translate(-40.99 -36.78)"
     opacity="0.2"
     id="path129" />
  <path
     d="M868.86,373.87c-.92,3.95-2.07,2.62-3.79,2.22s-3.34.28-2.42-3.67,5.75-10.64,5.75-10.64S869.79,369.91,868.86,373.87Z"
     transform="translate(-40.99 -36.78)"
     opacity="0.2"
     id="path131" />
  <path
     d="M764.85,782.65l-.52,2.21c-12.52,2.84-78.67-20.27-73.36-30.8Z"
     transform="translate(-40.99 -36.78)"
     opacity="0.2"
     id="path133" />
  <path
     d="M764.85,784.71l-.52.15.52-2.21c19-5.55,95.43,14.1,95.43,14.1C860.52,808.71,761.13,794.47,764.85,784.71Z"
     transform="translate(-40.99 -36.78)"
     opacity="0.2"
     id="path135" />
  <g
     opacity="0.1"
     id="g139">
    <path
       d="M775,448.79c-5.06,22.75-26.09,52.61-57.3,78.28a239.33,239.33,0,0,1-56.35,34.36c.19-1,.39-2,.58-3q2.16-11.13,4.8-22.38a593.81,593.81,0,0,1,35.75-107.43c.32-.69.62-1.38.94-2.06.18-.41.37-.82.56-1.22,20.84-9.8,39.9-13.74,53.25-10.68a25.17,25.17,0,0,1,12.12,6.19,20.1,20.1,0,0,1,1.66,1.79,23.6,23.6,0,0,1,5,13.15A42.69,42.69,0,0,1,775,448.79Z"
       transform="translate(-40.99 -36.78)"
       id="path137" />
  </g>
  <g
     opacity="0.1"
     id="g143">
    <path
       d="M773.34,446.19c-5.06,22.75-26.09,52.61-57.31,78.28a239.62,239.62,0,0,1-54,33.35q2.1-10.83,4.67-21.75a593.81,593.81,0,0,1,35.75-107.43c.32-.69.62-1.38.94-2.06.18-.41.37-.82.56-1.22l1.23-2.68.73-1.54c19.44-8.6,37.1-11.94,49.67-9.06a25.13,25.13,0,0,1,12.12,6.2,20,20,0,0,1,1.66,1.78,23.64,23.64,0,0,1,5.06,13.16A42.65,42.65,0,0,1,773.34,446.19Z"
       transform="translate(-40.99 -36.78)"
       id="path141" />
  </g>
  <path
     d="M773.09,447.25C768,470,747,499.86,715.79,525.53a239.52,239.52,0,0,1-54,33.32c0-.14.05-.27.08-.4s.09-.42.13-.63q2.1-10.83,4.67-21.75a593.81,593.81,0,0,1,35.75-107.43c.32-.69.62-1.38.94-2.06.18-.41.37-.82.56-1.22l1.23-2.68c.05-.12.11-.23.16-.35,19.57-8.71,37.35-12.1,50-9.2a25.27,25.27,0,0,1,12.12,6.2,18.81,18.81,0,0,1,1.66,1.79,23.57,23.57,0,0,1,5,13.15A42.69,42.69,0,0,1,773.09,447.25Z"
     transform="translate(-40.99 -36.78)"
     fill="#79e08f"
     id="path145" />
  <ellipse
     cx="755.77"
     cy="648.6"
     rx="108.88"
     ry="104.97"
     transform="translate(-88.4 1200.7) rotate(-76.88)"
     opacity="0.1"
     id="ellipse147" />
  <ellipse
     cx="755.28"
     cy="650.71"
     rx="108.88"
     ry="104.97"
     transform="translate(-90.83 1201.85) rotate(-76.88)"
     fill="#79e08f"
     id="ellipse149" />
  <path
     d="M764,621.67a6.83,6.83,0,0,1-13.31-3.1c.86-3.68,3.4-1.11,7.07-.26S764.83,618,764,621.67Z"
     transform="translate(-40.99 -36.78)"
     fill="#65617d"
     id="path151" />
  <g
     opacity="0.1"
     id="g159">
    <path
       d="M837,294.91c20.63,4.81,37.19,21.51,49.07,46.8.24-1.16.5-2.34.78-3.53.72-3.1,1.53-6.1,2.39-9-11.23-18.95-25.71-31.43-43.09-35.48a56.94,56.94,0,0,0-24.59-.12A54.79,54.79,0,0,1,837,294.91Z"
       transform="translate(-40.99 -36.78)"
       id="path153" />
    <path
       d="M933.11,598.53c-8.61-80.81-12-161.67-24.21-216.51,6.22-7,38.27-15.22,42.22-32.19,6-25.56-21.49-53.81-29.62-55.71-2-.47-4.28.37-6.58,2.3C925.06,302.18,947.4,327.71,942,351c-4,17-36,25.14-42.22,32.19C912,438.06,915.35,518.92,924,599.73c11.44,107.4-8.33,164.78-73.86,198,0,1.46-1.44,2.53-4,3.27,8-.36,13.24-1.72,13.18-4.47C924.78,763.32,944.55,705.93,933.11,598.53Z"
       transform="translate(-40.99 -36.78)"
       id="path155" />
    <path
       d="M760.22,259.88c8.14,1.89,9.9,24.15,3.95,49.72a139.49,139.49,0,0,1-5.3,17.58q6.2-6.12,12.46-11.21c.71-2.45,1.38-5,2-7.56,6-25.57,4.19-47.83-3.94-49.73-2.14-.5-6-.18-10.61,1A8.25,8.25,0,0,1,760.22,259.88Z"
       transform="translate(-40.99 -36.78)"
       id="path157" />
  </g>
  <g
     opacity="0.1"
     id="g169">
    <path
       d="M916.67,623.1c-23.55,10.65-70.85-35.64-95.33-89.73-16.65-36.82-22.32-72.9-16.8-95.54a42.65,42.65,0,0,1,4.78-12.11,23.64,23.64,0,0,1,10.35-9.57,19.08,19.08,0,0,1,2.28-.87,25.24,25.24,0,0,1,13.61-.2c22.78,5.4,51.53,36.54,71.05,79.71C931.08,548.87,940.22,612.44,916.67,623.1Z"
       transform="translate(-40.99 -36.78)"
       id="path161" />
    <g
       opacity="0.1"
       id="g167">
      <path
         d="M830,456.31c-2.64,2.42-12-3.49-21-13.22-1.62-1.76-3.11-3.53-4.46-5.26a42.65,42.65,0,0,1,4.78-12.11,76.77,76.77,0,0,1,9.22,8.6C827.48,444,832.59,453.88,830,456.31Z"
         transform="translate(-40.99 -36.78)"
         id="path163" />
      <path
         d="M835.56,415.08a85.74,85.74,0,0,1,6.6,6.44c8.94,9.72,14,19.56,11.4,22s-12-3.48-20.94-13.21c-5-5.39-8.75-10.82-10.67-15Z"
         transform="translate(-40.99 -36.78)"
         id="path165" />
    </g>
  </g>
  <g
     opacity="0.1"
     id="g173">
    <path
       d="M919.76,619.38c-23.55,10.66-70.85-35.64-95.33-89.72-16.66-36.83-22.33-72.91-16.81-95.55A42.66,42.66,0,0,1,812.41,422a23.58,23.58,0,0,1,10.35-9.57,20.74,20.74,0,0,1,2.27-.86,25.08,25.08,0,0,1,13.62-.2c22.77,5.39,51.52,36.54,71.05,79.7C934.17,545.15,943.3,608.72,919.76,619.38Z"
       transform="translate(-40.99 -36.78)"
       id="path171" />
  </g>
  <path
     d="M918.21,621.24c-23.54,10.66-70.85-35.64-95.32-89.73-16.66-36.82-22.33-72.9-16.81-95.54a42.66,42.66,0,0,1,4.79-12.11,23.56,23.56,0,0,1,10.34-9.57,21,21,0,0,1,2.28-.87,25.24,25.24,0,0,1,13.61-.2c22.78,5.4,51.53,36.55,71.06,79.71C932.62,547,941.76,610.58,918.21,621.24Z"
     transform="translate(-40.99 -36.78)"
     fill="#79e08f"
     id="path175" />
  <g
     id="g1129"
     transform="translate(-781.57989,-239.08658)">
    <circle
       cx="1084.1107"
       cy="541.32324"
       r="301.5"
       fill="#3f3d56"
       id="circle1061" />
    <circle
       cx="1084.1107"
       cy="541.32324"
       r="248.89787"
       opacity="0.05"
       id="circle1063"
       style="opacity:0.16423146" />
    <circle
       cx="1084.1107"
       cy="541.32324"
       r="203.99362"
       opacity="0.05"
       id="circle1065"
       style="opacity:0.23814625" />
    <circle
       cx="1084.1107"
       cy="541.32324"
       r="146.25957"
       opacity="0.05"
       id="circle1067"
       style="opacity:0.56439532;fill:#1b1a25;fill-opacity:1" />
  </g>
</svg>
