<?xml version="1.0" encoding="UTF-8" standalone="no"?>
<svg
   xmlns:dc="http://purl.org/dc/elements/1.1/"
   xmlns:cc="http://creativecommons.org/ns#"
   xmlns:rdf="http://www.w3.org/1999/02/22-rdf-syntax-ns#"
   xmlns:svg="http://www.w3.org/2000/svg"
   xmlns="http://www.w3.org/2000/svg"
   xmlns:sodipodi="http://sodipodi.sourceforge.net/DTD/sodipodi-0.dtd"
   xmlns:inkscape="http://www.inkscape.org/namespaces/inkscape"
   id="50e57290-260b-436f-8c41-6bbeb14220ce"
   data-name="Layer 1"
   width="1040.82"
   height="799.22"
   viewBox="0 0 1040.82 799.22"
   version="1.1"
   sodipodi:docname="undraw_young_and_happy.svg"
   inkscape:version="1.0.1 (1.0.1+r74)">
  <metadata
     id="metadata1445">
    <rdf:RDF>
      <cc:Work
         rdf:about="">
        <dc:format>image/svg+xml</dc:format>
        <dc:type
           rdf:resource="http://purl.org/dc/dcmitype/StillImage" />
        <dc:title>young and happy</dc:title>
      </cc:Work>
    </rdf:RDF>
  </metadata>
  <sodipodi:namedview
     pagecolor="#ffffff"
     bordercolor="#666666"
     borderopacity="1"
     objecttolerance="10"
     gridtolerance="10"
     guidetolerance="10"
     inkscape:pageopacity="0"
     inkscape:pageshadow="2"
     inkscape:window-width="1920"
     inkscape:window-height="1008"
     id="namedview1443"
     showgrid="false"
     inkscape:zoom="1.3988788"
     inkscape:cx="228.27486"
     inkscape:cy="19.022298"
     inkscape:window-x="0"
     inkscape:window-y="0"
     inkscape:window-maximized="1"
     inkscape:current-layer="50e57290-260b-436f-8c41-6bbeb14220ce"
     inkscape:document-rotation="0" />
  <defs
     id="defs1190">
    <linearGradient
       id="8fcae9e5-a837-46bd-859d-51e037a86afe"
       x1="294.12"
       y1="842.7"
       x2="294.12"
       y2="213.7"
       gradientUnits="userSpaceOnUse">
      <stop
         offset="0"
         stop-color="gray"
         stop-opacity="0.25"
         id="stop1183" />
      <stop
         offset="0.54"
         stop-color="gray"
         stop-opacity="0.12"
         id="stop1185" />
      <stop
         offset="1"
         stop-color="gray"
         stop-opacity="0.1"
         id="stop1187" />
    </linearGradient>
  </defs>
  <title
     id="title1192">young and happy</title>
  <path
     d="M697.42,182.16c-64.72-2.66-126.36-27.37-185.22-54.41S395,70.75,331.86,56.42C291.23,47.21,244.77,45.91,212,71.67c-31.5,24.8-41.68,67.6-47.15,107.32-4.12,29.88-6.54,61.33,4.74,89.3,7.83,19.42,21.74,35.75,31.36,54.35,33.47,64.73,9.81,144.54-26.45,207.75-17,29.64-36.75,57.93-49.88,89.49s-19.2,67.72-7.71,99.91c11.38,31.91,38.51,55.88,67.9,72.74,59.69,34.24,130,44,198.61,49.59,151.82,12.28,304.46,7,456.69,1.64,56.33-2,112.92-4,168.34-14.28,30.78-5.72,62.55-14.8,84.89-36.73,28.37-27.83,35.4-75,16.39-109.86-31.88-58.54-120-73.08-142.31-135.91-12.26-34.58.33-73.1,18.16-105.17,38.23-68.8,102.33-129.16,105.7-207.8,2.32-54-28.49-108.1-76.13-133.65-49.93-26.79-119.18-23.42-156,20.92C821.23,166.94,754.57,184.51,697.42,182.16Z"
     fill="#79e08f"
     opacity="0.1"
     id="path1194"
     transform="translate(-79.59 -50.39)" />
  <path
     d="m 505.48,311.93 -53.28,8.35 -27.3,2.6 v 0 l -7.28,0.7 c 0,0 -13,2.06 -14.27,0 -1.27,-2.06 -26.32,0 -26.32,0 0,0 -15.22,-18.14 -51.38,-8.56 -3.65106,2.16208 -7.76454,3.42355 -12,3.68 -0.005,-0.0732 -0.005,-0.14675 0,-0.22 0.13,-4.17 -0.39,-18.55 -13.08,-26.42 -3.60941,0.3731 -7.11143,1.44647 -10.31,3.16 l -0.29,0.16 -0.86,0.5 L 289,296 c 0.37406,-1.64607 0.62806,-3.31713 0.76,-5 0,-0.63 0,-1.26 0.07,-1.89 1.45559,-0.40355 2.7294,-1.29275 3.61,-2.52 -2.84319,-99.73465 -157.63379,-11.94801 -54.05,34.03 l 0.16,0.33 v 0 c -6.75,4 -22.44,13.73 -23.46,17.46 -1.31,4.76 -0.84,17.28 8.56,19.82 2.0343,0.55458 4.14473,0.77744 6.25,0.66 -0.4,0.63 -0.79,1.27 -1.17,1.89 -2.6,4.22 -4.78,8.13 -5.44,10.23 -1.9,6.13 -19.66,13.55 -19.66,13.55 0,0 -16.18,13 -19.66,38 0,0 -17.13,22.26 -26.64,26.9 -9.51,4.64 -26,33.08 -26,33.08 0,0 -16.33,11.46 -19.8,22.63 -3.47,11.17 -12,13.92 -12,13.92 0,0 0.78,0.38 2,1.14 -0.39,0.21 -0.8,0.45 -1.26,0.73 -7.76,4.62 -24.89,17.27 -21.1,37 3.68,19 25.16,0.51 35.6,-9.83 l 0.94,-0.94 c -0.15972,1.06503 -0.38007,2.12008 -0.66,3.16 2.25841,-3.52452 5.05963,-6.66998 8.3,-9.32 3.487,-2.81725 6.35082,-6.32807 8.41,-10.31 1.58,-3 4.11,-6 8,-7 8.56,-2.16 52,-35.55 61.53,-52.87 9.53,-17.32 29.49,-24 29.49,-24 l 9.16,28.65 c 1.39728,4.38058 1.64181,9.04738 0.71,13.55 -2,9.76 -4.51,28.62 1.55,43.29 0,0 0.28,-0.26 0.79,-0.69 0.83,3.72 1.89,8.61 2.85,13.42 0.23,1.18 0.45,2.36 0.66,3.52 0.61,3.27 1.12,6.34 1.41,8.79 1.27,10.52 4.76,34.64 7.61,37.11 2.85,2.47 19,52.56 19,52.56 0,0 14.27,32.78 12.06,47.31 -0.20136,1.77973 -0.17111,3.57805 0.09,5.35 0.49188,3.6138 1.22011,7.19147 2.18,10.71 0.28,1.06 0.56,2.14 0.88,3.24 0.26,0.95 0.54,1.92 0.82,2.89 6.91,23.45 20.13,54.8 20.13,54.8 0,0 1.1,2.85 2.53,6.66 0.47,1.28 1,2.67 1.51,4.1 2.35,6.4 4.83,13.58 4.83,15.21 0,0.37 0.5,0.78 1.37,1.2 -2.26482,3.76533 -4.2695,7.68113 -6,11.72 -2.78,6.56 -10.78,13.06 -10.78,13.06 0,0 -9.52,2.7 -9.52,11 v 6.34 c 0,0 20.22,-0.39 26.88,1.47 6.66,1.86 15.54,-1.32 15.54,-1.32 l 1.9,-2.46 c 0,0 23.07,1 24.5,-4.73 0.42,-1.68 0.4,-5.26 0.06,-9.53 -0.43592,-5.20706 -1.20416,-10.38093 -2.3,-15.49 1.52,-0.06 2.56,-0.16 2.56,-0.16 0,0 10.55,6.8 11.65,13.53 0.68261,4.00364 3.08812,7.5059 6.58,9.58 0,0 10.95,5 31.95,2.71 11,-1.17 13.07,-6.77 12.06,-11.75 -0.92,-4.56 -4.44,-8.6 -6.11,-8.27 -3.48,0.7 -17.52,-19.48 -17.52,-19.48 l -7.13,-15 c 0.64,-8 -1.24,-11.79 -3.88,-13.4 1.81,-16.87 2.05,-39.48 2.05,-39.48 0,0 1.59,-27.21 0,-51.64 -1.59,-24.43 -1.59,-72.35 -7,-88.43 -2.5,-7.48 -6.12,-28.43 -9.26,-48.69 -0.24,-1.52 -0.48,-3 -0.7,-4.53 -0.76,-4.93 -1.47,-9.75 -2.13,-14.27 0.31,-0.15 0.63,-0.3 0.91,-0.46 l -1.7,-14.84 -0.24,-2.05 c 0.06,0.06 0.14,0.1 0.2,0.15 5.71,5.25 -1.9,-23.81 -1.9,-23.81 0,0 -3.43,-33.42 -3.2,-52.64 0.0217,-6.8384 -0.34224,-13.67258 -1.09,-20.47 -0.58,-5.72 0.77,-13.15 9.41,-18.38 2.26989,-1.43274 4.39935,-3.07671 6.36,-4.91 2.41,-2.19 7.67,-5 19,-5.33 19,-0.61 38,-10.51 38,-10.51 0,0 21.89,1.24 32,-11.75 10.11,-12.99 35.52,-16.07 35.52,-16.07 z m -391.8,219.39 -2.81,-3.94 c 1.04389,1.23346 1.98377,2.5513 2.81,3.94 z m 239.17,160.85 c -0.16,2 -0.28,4.35 -0.3,7 -0.08,8.28 0.74,19.32 4.47,29.87 l -1.59,41.55 h -0.13 c -1.34,-0.14 -2.59,4.1 -3.56,9.69 -0.79341,-2.30743 -1.77678,-4.54509 -2.94,-6.69 -1.9,-2.78 -0.31,-18.23 -0.31,-18.23 0,0 -7.94,-12.68 -8.56,-15.47 -0.62,-2.79 -10.16,-47.93 -10.16,-47.93 0,0 -0.63,-35.24 -4.12,-44.2 -3.49,-8.96 -4.44,-47.93 -4.44,-47.93 0,0 17.44,28.13 18.72,42.36 l 13.63,43.6 c 0,0 -0.42,2.38 -0.71,6.38 z"
     transform="translate(-79.59,-50.39)"
     fill="url(#8fcae9e5-a837-46bd-859d-51e037a86afe)"
     id="path1196"
     sodipodi:nodetypes="cccccsccccccccccccccscccccccscsccccccccccsccccccccscccccccccscccscscccccccccccccccscccccccccccccccscccccccccccccscscccc" />
  <path
     d="M391,725.57s-.52,49.47-5.73,56.2-32.46.31-32.46.31l2-54.37c-3.61-10.44-4.41-21.38-4.32-29.58,0-2.62.13-5,.28-6.93.29-4,.69-6.36.69-6.36l-13.17-43.18c-1.23-14.1-18.07-42-18.07-42s.92,38.59,4.29,47.47,4,43.79,4,43.79,9.19,44.72,9.8,47.48,8.27,15.31,8.27,15.31-1.53,15.31.31,18.07,9.49,24.2,7.65,28.18-34.91-1.54-34.91-4.6c0-1.61-2.4-8.73-4.67-15.07l-1.46-4.06c-1.38-3.77-2.45-6.59-2.45-6.59s-12.76-31.06-19.43-54.29c-.28-1-.54-1.92-.8-2.85-.3-1.1-.58-2.17-.84-3.22a86,86,0,0,1-2.11-10.6,21.26,21.26,0,0,1-.09-5.3c2.14-14.4-11.64-46.86-11.64-46.86s-15.62-49.62-18.38-52.07-6.13-26.33-7.35-36.75c-.28-2.44-.77-5.48-1.36-8.71-.2-1.15-.42-2.32-.64-3.5-1.87-9.65-4.17-19.64-4.17-19.64l34.35-22.67,90.35-9.8s2.52,19.36,5.69,40.7c.22,1.48.45,3,.68,4.49,3,20.06,6.53,40.82,8.94,48.22,5.2,15.93,5.2,63.4,6.74,87.59S391,725.57,391,725.57Z"
     transform="translate(-79.59 -50.39)"
     fill="#63667e"
     id="path1198" />
  <polygon
     points="222.54 471.28 233.91 529.33 239.31 529.33 228.51 469.26 222.54 471.28"
     opacity="0.1"
     id="polygon1200" />
  <path
     d="M249.09,549c-.2-1.15-.42-2.32-.64-3.5,5.29-1.08,17.26-5.49,15.4-23.17h3.67S271,545.62,249.09,549Z"
     transform="translate(-79.59 -50.39)"
     opacity="0.1"
     id="path1202" />
  <path
     d="M375.35,538.61c-6.86,1.26-28.3,4.95-32.79,2.51-5.35-2.91-10.64-18.68-10.64-18.68l4.9-.77s-4.32,23.13,37.85,12.45C374.89,535.6,375.12,537.1,375.35,538.61Z"
     transform="translate(-79.59 -50.39)"
     opacity="0.1"
     id="path1204" />
  <path
     d="M373.5,519.53c-6.18,3.59-20.69,5.32-37.58,6-1.54.06-3.09.12-4.67.16-27.38.86-59.35-.69-72.09-1.42-3.59-.2-5.65-.34-5.65-.34l11.18-7.73,18.38-6.74,38.66-7.58,49.54-1.38.5,4.25Z"
     transform="translate(-79.59 -50.39)"
     fill="#33363d"
     id="path1206" />
  <path
     d="M335.92,525.57c-1.54.06-3.09.12-4.67.16-1.94-8.22-8.06-21.36-8.06-21.36l5.2-.69Z"
     transform="translate(-79.59 -50.39)"
     fill="#63667e"
     id="path1208" />
  <path
     d="M127.33,542.62s-2.16,2.5-5.48,5.88c-10.08,10.25-30.83,28.56-34.37,9.74-3.67-19.51,12.88-32,20.37-36.62,2.12-1.31,3.51-2,3.51-2Z"
     transform="translate(-79.59 -50.39)"
     fill="#ffa2a2"
     id="path1210"
     style="fill:#f9c29a;fill-opacity:1" />
  <path
     d="M312.93,322.22s-11.71-7.35-13.89-6.66,0,10.55,0,10.55a28.66,28.66,0,0,1-12.75,12.42,179.24,179.24,0,0,0-18.15,10.9,32.53,32.53,0,0,0-25,8.27,20,20,0,0,1-16.19,2.76c-9.08-2.52-9.53-14.92-8.27-19.63,1-3.7,16.14-13.3,22.66-17.3h0c1.8-1.1,2.94-1.77,2.94-1.77s29.42-1,36.06-13.55a24.51,24.51,0,0,1,8.82-9.44h0l.17-.09.84-.5.27-.15a26.45,26.45,0,0,1,10-3.14C314.81,304.07,312.93,322.22,312.93,322.22Z"
     transform="translate(-79.59 -50.39)"
     fill="#ced7e7"
     id="path1212" />
  <path
     d="M312.93,322.22s-11.71-7.35-13.89-6.66,0,10.55,0,10.55a28.66,28.66,0,0,1-12.75,12.42,179.24,179.24,0,0,0-18.15,10.9,32.53,32.53,0,0,0-25,8.27,20,20,0,0,1-16.19,2.76c-9.08-2.52-9.53-14.92-8.27-19.63,1-3.7,16.14-13.3,22.66-17.3h0c1.8-1.1,2.94-1.77,2.94-1.77s29.42-1,36.06-13.55a24.51,24.51,0,0,1,8.82-9.44h0l.17-.09.84-.5.27-.15a26.45,26.45,0,0,1,10-3.14C314.81,304.07,312.93,322.22,312.93,322.22Z"
     transform="translate(-79.59 -50.39)"
     opacity="0.1"
     id="path1214" />
  <path
     d="M371.77,504.79l0,0c-5.51-5.21-39.81,4.28-39.81,4.28s-23.62,6.78-41.64,7.88a68.06,68.06,0,0,1-7.37.09c-7.57-.39-15.46,2.67-22.08,6.34l-1.67,1c-3.59-.2-5.65-.34-5.65-.34l11.18-7.73,18.38-6.74,38.66-7.58,49.54-1.38Z"
     transform="translate(-79.59 -50.39)"
     opacity="0.1"
     id="path1216" />
  <path
     d="M121.85,548.5c2.29-15.26-9.55-24.13-14-26.88,2.12-1.31,3.51-2,3.51-2l16,23S125.17,545.12,121.85,548.5Z"
     transform="translate(-79.59 -50.39)"
     opacity="0.1"
     id="path1218" />
  <path
     d="M501.29,340.6s-24.51,3-34.3,15.92-30.94,11.64-30.94,11.64-18.38,9.8-36.75,10.41c-10.91.36-16,3.1-18.32,5.27a41.05,41.05,0,0,1-6.14,4.87c-8.34,5.18-9.65,12.53-9.08,18.2a188.29,188.29,0,0,1,1.05,20.28c-.22,19,3.09,52.14,3.09,52.14s7.35,28.79,1.83,23.59-39.81,4.28-39.81,4.28-23.62,6.78-41.64,7.89a67.94,67.94,0,0,1-7.37.08c-7.57-.39-15.46,2.67-22.08,6.35a89.78,89.78,0,0,0-15.89,11.41c-5.86-14.53-3.42-33.22-1.5-42.88a27.25,27.25,0,0,0-.68-13.42l-8.85-28.38s-19.29,6.58-28.48,23.73S154.28,522.21,146,524.36c-3.79,1-6.23,3.95-7.76,6.89a31.77,31.77,0,0,1-8.11,10.22,39.08,39.08,0,0,0-8,9.23c5.52-20.83-15-30.94-15-30.94S115.39,517,118.76,506s19-22.35,19-22.35,15.93-28.18,25.12-32.78,25.73-26.64,25.73-26.64c3.36-24.81,19-37.67,19-37.67s17.16-7.35,19-13.42c.64-2.08,2.74-5.95,5.25-10.13,2.34-3.94,5-8.13,7.15-11.4s3.84-5.79,3.84-5.79l27.5-.26,5-.05L290,317.93s5.21-5.2,14.24.92a14.49,14.49,0,0,0,8.8,2.42,25.49,25.49,0,0,0,11.57-3.64c34.92-9.5,49.62,8.48,49.62,8.48s24.19-2.05,25.41,0,13.78,0,13.78,0l33.39-3.28,51.46-8.26Z"
     fill="#ced7e7"
     id="path1220"
     transform="translate(-79.59 -50.39)" />
  <path
     d="M300.37,331.41l-15.62,25.72s-42.57,30.94-36.44,6.74a40.41,40.41,0,0,0,1.05-12.45c-.09-1.63-.28-3.26-.52-4.87A79,79,0,0,0,243,327.2c-.31-.74-.63-1.45-1-2.15-.48-1-.95-2-1.42-2.94a97.74,97.74,0,0,0-6.71-11.53s46.25-37.67,47.78-14.09a48.26,48.26,0,0,0,3.6,15.49l.36.83a48.07,48.07,0,0,0,10.89,15.43A32.57,32.57,0,0,0,300.37,331.41Z"
     transform="translate(-79.59 -50.39)"
     fill="#ffa2a2"
     id="path1222"
     style="fill:#f9c29a;fill-opacity:1" />
  <path
     d="M238.51,355.3l7.2,21.43L275,381.48,291.8,363s9.65-13.78,10.26-14.09,2.14-13.47,2.14-13.47L306,328l-11.33-3.81-15.93,17.3-6.51,4L265,347.25l-24,7Z"
     transform="translate(-79.59 -50.39)"
     fill="#ced7e7"
     id="path1224" />
  <path
     d="M312.93,324.06s-8-.08-10.13.61-3.76,3.27-3.76,3.27a28.65,28.65,0,0,1-12.75,12.43,179.24,179.24,0,0,0-18.15,10.9,32.49,32.49,0,0,0-25,8.27A20.39,20.39,0,0,1,231.81,363c2.34-3.94,5-8.13,7.15-11.4,9.88-1.08,30.79-4.91,30.79-4.91l.55-1.14c1.94-4,8.51-17.51,10.93-21.59,2.82-4.76,11.66-19.63,11.94-20.1l-8.68,7.94,4.64-11.18h0l.17-.09.84-.5.27-.15a26.45,26.45,0,0,1,10-3.14c10.95,7,12.51,19.1,12.63,24.55A24.44,24.44,0,0,1,312.93,324.06Z"
     transform="translate(-79.59 -50.39)"
     opacity="0.1"
     id="path1226" />
  <path
     d="M241.31,321.7l2.27,5s-.19.16-.59.46c-.31-.74-.63-1.45-1-2.15-.48-1-.95-2-1.42-2.94.24-.14.46-.29.68-.41Z"
     transform="translate(-79.59 -50.39)"
     opacity="0.1"
     id="path1228" />
  <path
     d="M296.54,328.24a30.54,30.54,0,0,1-10.25,8.45,178.28,178.28,0,0,0-18.15,10.91,32.5,32.5,0,0,0-18.78,3.82c-.09-1.63-.28-3.26-.52-4.87,9.84-1.52,20.91-3.55,20.91-3.55s8.62-17.91,11.48-22.73c1-1.62,2.64-4.45,4.42-7.46A48.07,48.07,0,0,0,296.54,328.24Z"
     transform="translate(-79.59 -50.39)"
     opacity="0.1"
     id="path1230" />
  <path
     d="M312.93,322.22s-8-.08-10.14.61-3.75,3.28-3.75,3.28a28.66,28.66,0,0,1-12.75,12.42,179.24,179.24,0,0,0-18.15,10.9,32.53,32.53,0,0,0-25,8.27,20,20,0,0,1-16.19,2.76c-9.08-2.52-9.53-14.92-8.27-19.63,1-3.7,16.14-13.3,22.66-17.3h0l2.27,5.05a141.74,141.74,0,0,1-14.83,9.95c-9.77,5.85-4.83,12.17-4.83,12.17A50.48,50.48,0,0,1,234.6,350c5.06.34,35.15-5.17,35.15-5.17s8.62-17.92,11.48-22.73,11.66-19.63,11.94-20.1L284.49,310l4.64-11.18h0l.17-.09.84-.5.27-.15a26.45,26.45,0,0,1,10-3.14C314.81,304.07,312.93,322.22,312.93,322.22Z"
     transform="translate(-79.59 -50.39)"
     fill="#ced7e7"
     id="path1232" />
  <path
     d="M285.29,312A34.94,34.94,0,0,1,242,325.05a101.51,101.51,0,0,0-8.13-14.47s46.25-37.67,47.78-14.09A48.26,48.26,0,0,0,285.29,312Z"
     transform="translate(-79.59 -50.39)"
     opacity="0.1"
     id="path1234" />
  <path
     d="M290,291.19q0,1.31-.09,2.58a35,35,0,1,1,.09-2.58Z"
     fill="#ffa2a2"
     id="path1236"
     style="fill:#f9c29a;fill-opacity:1;opacity:0.99999999"
     transform="translate(-79.59 -50.39)" />
  <path
     d="M199.31,403.69S207,418.08,216.46,426s15,20.22,15,20.22S228.71,422.37,199.31,403.69Z"
     transform="translate(-79.59 -50.39)"
     opacity="0.1"
     id="path1238" />
  <path
     d="M187.36,439.83s27-6.74,40.59,0Z"
     transform="translate(-79.59 -50.39)"
     opacity="0.1"
     id="path1240" />
  <path
     d="M177.56,480l29.05-10S188,483.32,177.56,480Z"
     transform="translate(-79.59 -50.39)"
     opacity="0.1"
     id="path1242" />
  <path
     d="M127.33,519.15s12.56-.61,16.54,3.37C143.87,522.52,131.62,523.44,127.33,519.15Z"
     transform="translate(-79.59 -50.39)"
     opacity="0.1"
     id="path1244" />
  <path
     d="M420.41,325.41S392.25,342.13,391,369.08Z"
     transform="translate(-79.59 -50.39)"
     opacity="0.1"
     id="path1246" />
  <path
     d="M454.43,350.7s-34.92,7.05-40.74,10.72-18.37,5.51-18.37,5.51S445.85,360.2,454.43,350.7Z"
     transform="translate(-79.59 -50.39)"
     opacity="0.1"
     id="path1248" />
  <path
     d="M352,498.51c-2.54,2.64-33.89,10.08-61.91,16.3a70.46,70.46,0,0,1-7.64.09c-7.85-.4-16,2.75-22.9,6.53-8.46,1.8-13.93,2.93-13.93,2.93s-9.21-7.26,3.49-23.65,14.93-42.25,14.93-42.25L320.58,444s15.25,21,22.55,24.37S356.7,493.65,352,498.51Z"
     transform="translate(-79.59 -50.39)"
     opacity="0.1"
     id="path1250" />
  <path
     d="M350,499.24c-2.46,2.58-32.69,9.8-59.71,15.85a67.94,67.94,0,0,1-7.37.08c-7.57-.39-15.46,2.67-22.08,6.35-8.16,1.74-13.44,2.84-13.44,2.84s-8.88-7.05,3.37-23,14.39-41.05,14.39-41.05l54.52-14.08s14.7,20.4,21.74,23.68S354.5,494.53,350,499.24Z"
     transform="translate(-79.59 -50.39)"
     fill="#ced7e7"
     id="path1252" />
  <path
     d="M305.74,700,290,709.32a86,86,0,0,1-2.11-10.6C290.18,700.63,305.74,700,305.74,700Z"
     transform="translate(-79.59 -50.39)"
     opacity="0.1"
     id="path1254" />
  <path
     d="M290.86,712.54c5.56-1.06,18.76-3.7,26-6.18-6.56,3.2-18.43,8.55-25.17,9C291.38,714.43,291.12,713.47,290.86,712.54Z"
     transform="translate(-79.59 -50.39)"
     opacity="0.1"
     id="path1256" />
  <path
     d="M321.5,704c-.58.71-2.28,1.51-4.63,2.32C319.68,705,321.5,704,321.5,704Z"
     transform="translate(-79.59 -50.39)"
     opacity="0.1"
     id="path1258" />
  <path
     d="M331,781c-4.46.37-11.71-.23-16-.67l-1.46-4.06c4.59.49,13.7,1.26,17.46.14C336.13,774.89,337.67,780.47,331,781Z"
     transform="translate(-79.59 -50.39)"
     opacity="0.1"
     id="path1260" />
  <path
     d="M370.85,699.61c-.74-.1-12.64-1.44-20.3-1.48,0-2.62.13-5,.28-6.93C356.11,693.43,370.06,699.34,370.85,699.61Z"
     transform="translate(-79.59 -50.39)"
     opacity="0.1"
     id="path1262" />
  <path
     d="M362.09,831.31C360.71,837,338.43,836,338.43,836l-1.84,2.44s-8.57,3.14-15,1.3-26-1.45-26-1.45V832c0-8.19,9.19-10.87,9.19-10.87s7.73-6.43,10.41-12.94A97,97,0,0,1,321,796.48s-7.19-8.73,12.1-11c19-2.2,11.55,15.05,11.34,15.53.31-.28,7.44-6.69,11.4-4.67,2.86,1.47,5.45,15.39,6.26,25.47C362.47,826.09,362.49,829.64,362.09,831.31Z"
     transform="translate(-79.59 -50.39)"
     fill="#ced7e7"
     id="path1264" />
  <path
     d="M362.09,831.31C360.71,837,338.43,836,338.43,836l-1.84,2.44s-8.57,3.14-15,1.3-26-1.45-26-1.45v-6c11.78.58,35.36,1.36,40.66-1.37,0,0,6.35-1.61,7.81-2.68,1.23-.91,14.17-5.14,18-6.39C362.47,826.09,362.49,829.64,362.09,831.31Z"
     transform="translate(-79.59 -50.39)"
     opacity="0.1"
     id="path1266" />
  <path
     d="M410.86,831.94c-20.29,2.22-30.86-2.69-30.86-2.69a13.66,13.66,0,0,1-6.35-9.49c-1.07-6.66-11.26-13.39-11.26-13.39s-12.55,1.22-14.09-2.46a16.59,16.59,0,0,1-.42-4.77c0-9.87,2.47-30.6,5.32-30.3,3.36.37,13.75,14.13,14.79,15.51-.91-1.48-9.95-16.89,10.1-18.72,0,0,16.38-9.26,14.7,12.33l6.89,14.85s13.56,20,16.92,19.3c1.61-.33,5,3.67,5.9,8.19C423.47,825.23,421.46,830.78,410.86,831.94Z"
     transform="translate(-79.59 -50.39)"
     fill="#ced7e7"
     id="path1268" />
  <path
     d="M410.86,831.94c-20.29,2.22-30.86-2.69-30.86-2.69a13.66,13.66,0,0,1-6.35-9.49c-1.07-6.66-11.26-13.39-11.26-13.39s-12.55,1.22-14.09-2.46a16.59,16.59,0,0,1-.42-4.77c4.64,1.11,15.33,3.66,18.64,4.61,4.3,1.22,16.86,21.59,16.86,21.59,12.09,6.36,32.1-1.8,39.12-5C423.47,825.23,421.46,830.78,410.86,831.94Z"
     transform="translate(-79.59 -50.39)"
     opacity="0.1"
     id="path1274" />
  <path
     d="M321,796.48s-6.18,9.48,23.44,4.58"
     transform="translate(-79.59 -50.39)"
     opacity="0.1"
     id="path1276" />
  <path
     d="M368,784.35s31.24,6.79,24.8-6.39"
     transform="translate(-79.59 -50.39)"
     opacity="0.1"
     id="path1278" />
  <path
     d="M560.3,849.61H443.81a9.73,9.73,0,0,1-9.68-10.87l28.36-241,.59-5.09a9.74,9.74,0,0,1,9.67-8.6h61.16a9.74,9.74,0,0,1,9.68,8.7l.51,4.83L570,838.83A9.74,9.74,0,0,1,560.3,849.61Z"
     transform="translate(-79.59 -50.39)"
     fill="#4e5a86"
     id="path1312" />
  <path
     d="M470.53,612.87s4.28,109.33-12.25,151c0,0,1.72,8.88,6.37,0s20.58-101.38,12.92-149.46C477.57,614.4,476,609.19,470.53,612.87Z"
     transform="translate(-79.59 -50.39)"
     opacity="0.1"
     id="path1314" />
  <path
     d="M491.05,612.87s4.28,109.33-12.25,151c0,0,1.72,8.88,6.37,0s20.58-101.38,12.92-149.46C498.09,614.4,496.56,609.19,491.05,612.87Z"
     transform="translate(-79.59 -50.39)"
     opacity="0.1"
     id="path1316" />
  <path
     d="M541,612.87s-4.29,109.33,12.25,151c0,0-1.73,8.88-6.38,0S526.27,662.48,533.92,614.4C533.92,614.4,535.46,609.19,541,612.87Z"
     transform="translate(-79.59 -50.39)"
     opacity="0.1"
     id="path1318" />
  <path
     d="M520.45,612.87s-4.29,109.33,12.25,151c0,0-1.73,8.88-6.38,0S505.75,662.48,513.4,614.4C513.4,614.4,514.94,609.19,520.45,612.87Z"
     transform="translate(-79.59 -50.39)"
     opacity="0.1"
     id="path1320" />
  <rect
     x="395.64"
     y="19.42"
     width="55.36"
     height="483.03"
     fill="#4e5a86"
     id="rect1322" />
  <polygon
     points="356.94 385.76 356.94 385.76 356.94 385.76 356.94 385.76 356.94 385.76"
     fill="none"
     stroke="#c1272d"
     stroke-miterlimit="10"
     id="polygon1324" />
  <path
     d="M544.1,597.61a7.46,7.46,0,0,1-1.91.25H463.64a7.24,7.24,0,0,1-1.15-.09l.59-5.09a9.74,9.74,0,0,1,9.67-8.6h61.16a9.74,9.74,0,0,1,9.68,8.7Z"
     transform="translate(-79.59 -50.39)"
     opacity="0.1"
     id="path1326" />
  <rect
     x="395.64"
     y="492.8"
     width="55.93"
     height="9.65"
     opacity="0.1"
     id="rect1328" />
  <rect
     x="376.69"
     y="494.64"
     width="93.26"
     height="50.99"
     rx="8"
     ry="8"
     fill="#4e5a86"
     id="rect1330" />
  <rect
     x="399.36"
     y="19.42"
     width="7.96"
     height="460.06"
     opacity="0.1"
     id="rect1332" />
  <rect
     x="412.68"
     y="19.42"
     width="7.96"
     height="460.06"
     opacity="0.1"
     id="rect1334" />
  <rect
     x="426"
     y="19.42"
     width="7.96"
     height="460.06"
     opacity="0.1"
     id="rect1336" />
  <rect
     x="439.33"
     y="19.42"
     width="7.96"
     height="460.06"
     opacity="0.1"
     id="rect1338" />
  <path
     d="M534.05,300.44s-18.22-5.67-15.46,14.39,9.8,21.29,9.8,21.29,6.12-1.38,6.89-9.34S534.05,300.44,534.05,300.44Z"
     transform="translate(-79.59 -50.39)"
     fill="#ffa2a2"
     id="path1340"
     style="fill:#f9c29a;fill-opacity:1" />
  <g
     opacity="0.1"
     id="g1352">
    <path
       d="M949.48,727.76c15.33,22.63,10.43,103.65,10.43,103.65s-77-25.5-92.38-48.13a49.49,49.49,0,0,1,82-55.52Z"
       transform="translate(-79.59 -50.39)"
       fill="#79e08f"
       id="path1342" />
    <path
       d="M949.48,727.76c15.33,22.63,10.43,103.65,10.43,103.65s-77-25.5-92.38-48.13a49.49,49.49,0,0,1,82-55.52Z"
       transform="translate(-79.59 -50.39)"
       opacity="0.1"
       id="path1344" />
    <path
       d="M881.05,714.6s57.74,44.58,79.16,116.87"
       transform="translate(-79.59 -50.39)"
       fill="none"
       stroke="#535461"
       stroke-miterlimit="10"
       id="path1346" />
    <path
       d="M974.75,770.06s-41-7-13,60.91c0,0,28.49-10.85,30.71-37.87a21.55,21.55,0,0,0-17.15-22.92Z"
       transform="translate(-79.59 -50.39)"
       fill="#79e08f"
       id="path1348" />
    <path
       d="M975.36,770s7.81,37.56-13.56,61"
       transform="translate(-79.59 -50.39)"
       fill="none"
       stroke="#535461"
       stroke-miterlimit="10"
       id="path1350" />
  </g>
  <g
     opacity="0.1"
     id="g1370">
    <path
       d="M526.05,660s61.58-157,179.31-216.39c49.42-24.92,90.06-64.4,114.65-114a430,430,0,0,0,28.22-73.36"
       transform="translate(-79.59 -50.39)"
       fill="none"
       stroke="#535461"
       stroke-miterlimit="10"
       stroke-width="2"
       id="path1354" />
    <path
       d="M922.2,218.38c-12.16,15.67-75.78,39.07-75.78,39.07s6.9-67.44,19.06-83.1a35.9,35.9,0,1,1,56.72,44Z"
       transform="translate(-79.59 -50.39)"
       fill="#79e08f"
       id="path1356" />
    <path
       d="M901.72,341.54c-18.72,6.54-84.85-8.4-84.85-8.4s42.45-52.85,61.17-59.39a35.9,35.9,0,1,1,23.68,67.79Z"
       transform="translate(-79.59 -50.39)"
       fill="#79e08f"
       id="path1358" />
    <path
       d="M784.57,488.21c-19.47-3.8-69-50.08-69-50.08s63.33-24.2,82.79-20.39a35.9,35.9,0,0,1-13.78,70.47Z"
       transform="translate(-79.59 -50.39)"
       fill="#79e08f"
       id="path1360" />
    <path
       d="M670.93,579.23c-19.82-.46-76.47-37.7-76.47-37.7s58.32-34.55,78.15-34.09a35.9,35.9,0,0,1-1.68,71.79Z"
       transform="translate(-79.59 -50.39)"
       fill="#79e08f"
       id="path1362" />
    <path
       d="M755,290c2.76,19.63,46.32,71.57,46.32,71.57s27.55-61.94,24.79-81.58A35.91,35.91,0,0,0,755,290Z"
       transform="translate(-79.59 -50.39)"
       fill="#79e08f"
       id="path1364" />
    <path
       d="M623.43,398.07C631.94,416,689,452.51,689,452.51s7.76-67.35-.76-85.26a35.9,35.9,0,1,0-64.85,30.82Z"
       transform="translate(-79.59 -50.39)"
       fill="#79e08f"
       id="path1366" />
    <path
       d="M510,520.71c5.36,19.09,55.48,64.75,55.48,64.75s19-65.07,13.66-84.16A35.91,35.91,0,0,0,510,520.71Z"
       transform="translate(-79.59 -50.39)"
       fill="#79e08f"
       id="path1368" />
  </g>
  <g
     opacity="0.1"
     id="g1388">
    <path
       d="M515.86,377.22s22.25-56.73,64.78-78.17a92.36,92.36,0,0,0,41.42-41.18,155.26,155.26,0,0,0,10.2-26.5"
       transform="translate(-79.59 -50.39)"
       fill="none"
       stroke="#535461"
       stroke-miterlimit="10"
       stroke-width="2"
       id="path1372" />
    <path
       d="M659,217.7c-4.4,5.66-27.38,14.11-27.38,14.11s2.49-24.36,6.89-30A13,13,0,1,1,659,217.7Z"
       transform="translate(-79.59 -50.39)"
       fill="#79e08f"
       id="path1374" />
    <path
       d="M651.58,262.19c-6.76,2.36-30.65-3-30.65-3s15.33-19.1,22.09-21.46a13,13,0,1,1,8.56,24.49Z"
       transform="translate(-79.59 -50.39)"
       fill="#79e08f"
       id="path1376" />
    <path
       d="M609.25,315.18c-7-1.38-24.92-18.1-24.92-18.1s22.87-8.74,29.9-7.36a13,13,0,1,1-5,25.46Z"
       transform="translate(-79.59 -50.39)"
       fill="#79e08f"
       id="path1378" />
    <path
       d="M568.2,348.06c-7.16-.17-27.62-13.62-27.62-13.62s21.07-12.49,28.23-12.32a13,13,0,0,1-.61,25.94Z"
       transform="translate(-79.59 -50.39)"
       fill="#79e08f"
       id="path1380" />
    <path
       d="M598.56,243.55c1,7.09,16.74,25.86,16.74,25.86s10-22.38,9-29.47a13,13,0,1,0-25.69,3.61Z"
       transform="translate(-79.59 -50.39)"
       fill="#79e08f"
       id="path1382" />
    <path
       d="M551,282.61c3.08,6.47,23.71,19.67,23.71,19.67s2.8-24.33-.28-30.8A13,13,0,0,0,551,282.61Z"
       transform="translate(-79.59 -50.39)"
       fill="#79e08f"
       id="path1384" />
    <path
       d="M510.06,326.92c1.94,6.89,20,23.39,20,23.39S537,326.8,535,319.9a13,13,0,1,0-25,7Z"
       transform="translate(-79.59 -50.39)"
       fill="#79e08f"
       id="path1386" />
  </g>
  <g
     opacity="0.1"
     id="g1406">
    <path
       d="M703.25,847.76s.94-60.92,33.25-95.92a92.26,92.26,0,0,0,24.36-53.08,155.39,155.39,0,0,0,.25-28.4"
       transform="translate(-79.59 -50.39)"
       fill="none"
       stroke="#535461"
       stroke-miterlimit="10"
       stroke-width="2"
       id="path1390" />
    <path
       d="M781.34,648.19C779.21,655,760.65,671,760.65,671s-6.2-23.7-4.07-30.54a13,13,0,0,1,24.76,7.72Z"
       transform="translate(-79.59 -50.39)"
       fill="#79e08f"
       id="path1392" />
    <path
       d="M790,692.45c-5.51,4.58-29.77,7.91-29.77,7.91s7.66-23.26,13.17-27.85A13,13,0,0,1,790,692.45Z"
       transform="translate(-79.59 -50.39)"
       fill="#79e08f"
       id="path1394" />
    <path
       d="M769,756.91c-7.07,1.18-29.69-8.2-29.69-8.2s18.36-16.21,25.42-17.39A13,13,0,0,1,769,756.91Z"
       transform="translate(-79.59 -50.39)"
       fill="#79e08f"
       id="path1396" />
    <path
       d="M742,802.1c-6.77,2.35-30.65-3.07-30.65-3.07S726.75,780,733.51,777.6A13,13,0,1,1,742,802.1Z"
       transform="translate(-79.59 -50.39)"
       fill="#79e08f"
       id="path1398" />
    <path
       d="M733.83,693.58c3.42,6.3,24.74,18.35,24.74,18.35s1.47-24.44-2-30.74a13,13,0,0,0-22.79,12.39Z"
       transform="translate(-79.59 -50.39)"
       fill="#79e08f"
       id="path1400" />
    <path
       d="M703,746.83c5.15,5,29.1,10.1,29.1,10.1s-5.91-23.76-11.06-28.75a13,13,0,0,0-18,18.65Z"
       transform="translate(-79.59 -50.39)"
       fill="#79e08f"
       id="path1402" />
    <path
       d="M680.18,802.69c4.23,5.78,27,14.88,27,14.88s-1.81-24.43-6-30.21a13,13,0,0,0-20.93,15.33Z"
       transform="translate(-79.59 -50.39)"
       fill="#79e08f"
       id="path1404" />
  </g>
  <g
     opacity="0.1"
     id="g1424">
    <path
       d="M553.3,838.18s.94-60.93,33.25-95.93a92.26,92.26,0,0,0,24.36-53.08,155.28,155.28,0,0,0,.25-28.39"
       transform="translate(-79.59 -50.39)"
       fill="none"
       stroke="#535461"
       stroke-miterlimit="10"
       stroke-width="2"
       id="path1408" />
    <path
       d="M631.39,638.6c-2.13,6.84-20.69,22.82-20.69,22.82s-6.2-23.69-4.07-30.53a13,13,0,1,1,24.76,7.71Z"
       transform="translate(-79.59 -50.39)"
       fill="#79e08f"
       id="path1410" />
    <path
       d="M640.07,682.86c-5.51,4.59-29.77,7.91-29.77,7.91s7.66-23.26,13.17-27.84a13,13,0,0,1,16.6,19.93Z"
       transform="translate(-79.59 -50.39)"
       fill="#79e08f"
       id="path1412" />
    <path
       d="M619,747.33c-7.07,1.17-29.69-8.21-29.69-8.21s18.36-16.21,25.42-17.38A13,13,0,1,1,619,747.33Z"
       transform="translate(-79.59 -50.39)"
       fill="#79e08f"
       id="path1414" />
    <path
       d="M592.09,792.51c-6.77,2.36-30.65-3.07-30.65-3.07S576.8,770.37,583.56,768a13,13,0,1,1,8.53,24.5Z"
       transform="translate(-79.59 -50.39)"
       fill="#79e08f"
       id="path1416" />
    <path
       d="M583.88,684c3.42,6.3,24.74,18.35,24.74,18.35s1.47-24.44-2-30.74A13,13,0,1,0,583.88,684Z"
       transform="translate(-79.59 -50.39)"
       fill="#79e08f"
       id="path1418" />
    <path
       d="M553.07,737.24c5.15,5,29.1,10.11,29.1,10.11s-5.91-23.77-11.06-28.75a13,13,0,1,0-18,18.64Z"
       transform="translate(-79.59 -50.39)"
       fill="#79e08f"
       id="path1420" />
    <path
       d="M530.23,793.1c4.23,5.78,27,14.88,27,14.88s-1.81-24.43-6-30.21a13,13,0,1,0-20.93,15.33Z"
       transform="translate(-79.59 -50.39)"
       fill="#79e08f"
       id="path1422" />
  </g>
  <path
     d="M485,127.86c2,6.16-3.42,27.6-3.42,27.6S464.7,141.19,462.72,135A11.71,11.71,0,1,1,485,127.86Z"
     transform="translate(-79.59 -50.39)"
     fill="#79e08f"
     id="path1426" />
  <path
     d="M402,265c2,6.16-3.42,27.6-3.42,27.6s-16.9-14.27-18.88-20.43A11.71,11.71,0,0,1,402,265Z"
     fill="#79e08f"
     id="path1428"
     transform="translate(-79.59 -50.39)" />
  <path
     d="M576.86,204.55c2,6.16-3.43,27.6-3.43,27.6s-16.89-14.26-18.87-20.42a11.71,11.71,0,1,1,22.3-7.18Z"
     transform="translate(-79.59 -50.39)"
     fill="#79e08f"
     id="path1430" />
  <path
     d="M667.32,308.18c2,6.15-3.42,27.59-3.42,27.59S647,321.51,645,315.35a11.71,11.71,0,1,1,22.29-7.17Z"
     transform="translate(-79.59 -50.39)"
     fill="#79e08f"
     id="path1432" />
  <path
     d="M606.28,138c-3.29,5.57-22.91,15.76-22.91,15.76s-.55-22.1,2.74-27.67A11.71,11.71,0,0,1,606.28,138Z"
     fill="#79e08f"
     id="path1434"
     transform="translate(-79.59 -50.39)" />
  <path
     d="M827.53,121.31c-3.29,5.57-22.91,15.76-22.91,15.76s-.54-22.11,2.75-27.67a11.71,11.71,0,1,1,20.16,11.91Z"
     transform="translate(-79.59 -50.39)"
     fill="#79e08f"
     id="path1436" />
  <path
     d="M382,164.23c-6.26,1.63-27.36-5-27.36-5s15.21-16.05,21.47-17.68A11.71,11.71,0,1,1,382,164.23Z"
     transform="translate(-79.59 -50.39)"
     fill="#79e08f"
     id="path1438" />
  <path
     d="M584.72,417.3c-3.29,5.57-22.91,15.76-22.91,15.76s-.55-22.1,2.74-27.67a11.71,11.71,0,1,1,20.17,11.91Z"
     transform="translate(-79.59 -50.39)"
     fill="#79e08f"
     id="path1440" />
  <path
     d="m 159.90509,233.84926 c 2.37512,-2.46138 4.03688,-5.71651 7.06672,-7.3503 3.34927,-1.80863 7.59444,-1.23314 11.3964,-0.1898 4.19308,1.14868 2.38795,-4.10519 6.61775,-3.1085 4.22981,0.9967 8.75525,1.29932 12.69556,-0.22144 3.94031,-1.52075 7.11418,-5.2123 6.98636,-9.40891 -0.18674,-5.98602 -0.42469,-3.26099 -3.67935,-8.47847 -2.05391,-3.29914 -2.99971,-7.14948 -5.21315,-10.35294 -1.85358,-2.6811 -4.57123,-2.69345 -7.22745,-4.6114 -1.29049,-0.92881 -2.58505,-3.94985 -4.14014,-4.29306 -4.11341,-0.90319 -7.63634,2.54469 -11.70803,3.28336 -5.26434,0.95323 -10.30458,-2.65484 -15.22644,-5.0509 -1.89301,-0.91511 -4.62087,-1.48423 -5.662,0.22484 -1.22621,2.01069 0.45808,4.50629 0.071,6.95146 -2.41026,-0.96754 -2.72437,-1.61917 -5.48769,-1.01988 -1.36509,0.29603 -2.68252,3.65422 -3.76796,4.50414 -2.51784,-0.88829 -5.26905,-0.35405 -7.13331,1.38516 -0.37733,0.31449 -0.63653,0.74285 -0.73992,1.22292 -0.14072,1.04689 0.89741,1.8838 1.52602,2.78026 2.11489,3.01242 0.53481,1.19943 -2.32478,3.30447 -2.85958,2.10504 -6.43272,4.22773 -6.67139,7.78172 -0.13418,1.88454 0.7071,8.04391 1.01192,9.92559 0.70602,4.36466 -1.46572,2.17732 -0.8993,14.03756 0.56642,11.86024 7.74938,10.0467 10.03419,12.05115 1.51368,1.74487 1.70107,2.79968 3.28019,4.48994 2.89724,3.10248 4.91341,8.21267 9.12003,8.49204 1.04404,0.0658 2.15101,0.12546 3.03386,-0.37571 1.47153,-0.83524 1.69395,-2.838 1.59572,-4.54766 -0.13705,-2.34034 -0.55433,-4.66955 -1.24285,-6.93998 -0.63143,-2.08476 -3.05191,-5.22532 -3.14697,-7.22846 -0.17275,-3.43345 7.34925,-4.68136 9.83507,-7.2572 z"
     fill="#585268"
     id="path7083"
     style="fill:#191212;fill-opacity:1;stroke-width:0.285959"
     sodipodi:nodetypes="cccsscccccccccsccccsccccccscccc" />
</svg>
