<?xml version="1.0" encoding="UTF-8" standalone="no"?>
<svg
   xmlns:dc="http://purl.org/dc/elements/1.1/"
   xmlns:cc="http://creativecommons.org/ns#"
   xmlns:rdf="http://www.w3.org/1999/02/22-rdf-syntax-ns#"
   xmlns:svg="http://www.w3.org/2000/svg"
   xmlns="http://www.w3.org/2000/svg"
   xmlns:sodipodi="http://sodipodi.sourceforge.net/DTD/sodipodi-0.dtd"
   xmlns:inkscape="http://www.inkscape.org/namespaces/inkscape"
   id="bac3cfc7-b61b-48ce-8441-8100e40ddaa6"
   data-name="Layer 1"
   width="797.5"
   height="834.5"
   viewBox="0 0 797.5 834.5"
   version="1.1"
   sodipodi:docname="undraw_void_3ggu.svg"
   inkscape:version="1.0.1 (1.0.1+r74)">
  <metadata
     id="metadata51">
    <rdf:RDF>
      <cc:Work
         rdf:about="">
        <dc:format>image/svg+xml</dc:format>
        <dc:type
           rdf:resource="http://purl.org/dc/dcmitype/StillImage" />
      </cc:Work>
    </rdf:RDF>
  </metadata>
  <defs
     id="defs49" />
  <sodipodi:namedview
     pagecolor="#ffffff"
     bordercolor="#666666"
     borderopacity="1"
     objecttolerance="10"
     gridtolerance="10"
     guidetolerance="10"
     inkscape:pageopacity="0"
     inkscape:pageshadow="2"
     inkscape:window-width="1920"
     inkscape:window-height="1008"
     id="namedview47"
     showgrid="false"
     inkscape:zoom="0.69282687"
     inkscape:cx="314.07184"
     inkscape:cy="527.62937"
     inkscape:window-x="0"
     inkscape:window-y="0"
     inkscape:window-maximized="1"
     inkscape:current-layer="bac3cfc7-b61b-48ce-8441-8100e40ddaa6" />
  <title
     id="title2">void</title>
  <g
     id="g880"
     transform="translate(-4.4972965,1.4752084)">
    <circle
       cx="496"
       cy="301.5"
       r="301.5"
       fill="#3f3d56"
       id="circle6" />
    <circle
       cx="496"
       cy="301.5"
       r="248.89787"
       opacity="0.05"
       id="circle8" />
    <circle
       cx="496"
       cy="301.5"
       r="203.99362"
       opacity="0.05"
       id="circle10" />
    <circle
       cx="496"
       cy="301.5"
       r="146.25957"
       opacity="0.05"
       id="circle12" />
  </g>
  <g
     id="g894"
     transform="translate(-174.84987,9.9056711)">
    <path
       d="m 398.42029,361.23224 c 0,0 -23.70394,66.72221 -13.16886,90.42615 10.53508,23.70394 27.21564,46.52995 27.21564,46.52995 0,0 -6.14547,-132.56648 -14.04678,-136.9561 z"
       transform="translate(-201.25,-32.75)"
       fill="#d0cde1"
       id="path14" />
    <path
       d="m 398.42029,361.23224 c 0,0 -23.70394,66.72221 -13.16886,90.42615 10.53508,23.70394 27.21564,46.52995 27.21564,46.52995 0,0 -6.14547,-132.56648 -14.04678,-136.9561 z"
       transform="translate(-201.25,-32.75)"
       opacity="0.1"
       id="path16" />
    <path
       d="m 415.10084,515.74682 c 0,0 -1.75585,16.68055 -2.63377,17.55847 -0.87792,0.87792 0.87792,2.63377 0,5.26754 -0.87792,2.63377 -1.75585,6.14547 0,7.02339 1.75585,0.87792 -9.65716,78.13521 -9.65716,78.13521 0,0 -28.09356,36.8728 -16.68055,94.81576 l 3.51169,58.82089 c 0,0 27.21564,1.75585 27.21564,-7.90132 0,0 -1.75585,-11.413 -1.75585,-16.68055 0,-5.26755 4.38962,-5.26754 1.75585,-7.90131 -2.63377,-2.63377 -2.63377,-4.38962 -2.63377,-4.38962 0,0 4.38961,-3.51169 3.51169,-4.38962 -0.87792,-0.87793 7.90131,-63.2105 7.90131,-63.2105 0,0 9.65716,-9.65716 9.65716,-14.92471 v -5.26754 c 0,0 4.38962,-11.413 4.38962,-12.29093 0,-0.87793 23.70394,-54.43127 23.70394,-54.43127 l 9.65716,38.62864 10.53509,55.3092 c 0,0 5.26754,50.04165 15.80262,69.356 0,0 18.4364,63.21051 18.4364,61.45466 0,-1.75585 30.72733,-6.14547 29.84941,-14.04678 -0.87792,-7.90131 -18.4364,-118.5197 -18.4364,-118.5197 L 533.62054,513.991 Z"
       transform="translate(-201.25,-32.75)"
       fill="#2f2e41"
       id="path18" />
    <path
       d="m 391.3969,772.97846 c 0,0 -23.70394,46.53 -7.90131,48.2858 15.80263,1.7558 21.94809,1.75585 28.97148,-5.26754 3.83968,-3.83968 11.61528,-8.99134 17.87566,-12.87285 a 23.117,23.117 0 0 0 10.96893,-21.98175 c -0.463,-4.29531 -2.06792,-7.83444 -6.01858,-8.16366 -10.53508,-0.87792 -22.826,-10.53508 -22.826,-10.53508 z"
       transform="translate(-201.25,-32.75)"
       fill="#2f2e41"
       id="path20" />
    <path
       d="m 522.20753,807.21748 c 0,0 -23.70394,46.53 -7.90131,48.28581 15.80263,1.75581 21.94809,1.75584 28.97148,-5.26754 3.83968,-3.83969 11.61528,-8.99134 17.87566,-12.87285 a 23.117,23.117 0 0 0 10.96893,-21.98175 c -0.463,-4.29531 -2.06792,-7.83444 -6.01857,-8.16367 -10.53509,-0.87792 -22.826,-10.53508 -22.826,-10.53508 z"
       transform="translate(-201.25,-32.75)"
       fill="#2f2e41"
       id="path22" />
    <circle
       cx="295.90488"
       cy="215.43253"
       r="36.904621"
       fill="#ffb8b8"
       id="circle24" />
    <path
       d="m 473.43048,260.30832 c 0,0 -26.36048,48.50322 -28.46928,48.50322 -2.1088,0 47.4488,15.81627 47.4488,15.81627 0,0 13.70743,-46.39439 15.81626,-50.61206 z"
       transform="translate(-201.25,-32.75)"
       fill="#ffb8b8"
       id="path26" />
    <path
       d="m 513.86726,313.3854 c 0,0 -52.67543,-28.97148 -57.943,-28.09356 -5.26757,0.87792 -61.45466,50.04166 -60.57673,70.2339 0.87793,20.19224 7.90131,53.55335 7.90131,53.55335 0,0 2.63377,93.05991 7.90131,93.93783 5.26754,0.87792 -0.87792,16.68055 0.87793,16.68055 1.75585,0 122.90931,0 123.78724,-2.63377 0.87793,-2.63377 -21.94806,-203.6783 -21.94806,-203.6783 z"
       transform="translate(-201.25,-32.75)"
       fill="#d0cde1"
       id="path28" />
    <path
       d="m 543.2777,521.89228 c 0,0 16.68055,50.91958 2.63377,49.16373 -14.04678,-1.75585 -20.19224,-43.89619 -20.19224,-43.89619 z"
       transform="translate(-201.25,-32.75)"
       fill="#ffb8b8"
       id="path30" />
    <path
       d="m 498.50359,310.31267 c 0,0 -32.48318,7.02339 -27.21563,50.91957 5.26755,43.89618 14.9247,87.79237 14.9247,87.79237 l 32.48318,71.11182 3.51169,13.16886 23.70394,-6.14547 L 528.353,425.32067 c 0,0 -6.14547,-108.86253 -14.04678,-112.37423 a 33.99966,33.99966 0 0 0 -15.80263,-2.63377 z"
       transform="translate(-201.25,-32.75)"
       fill="#d0cde1"
       id="path32" />
    <polygon
       points="317.885,486.947 283.86,411.09 277.5,414.958 "
       opacity="0.1"
       id="polygon34" />
    <path
       d="m 533.896,237.31585 0.122,-2.82012 5.6101,1.39632 a 6.26971,6.26971 0 0 0 -2.5138,-4.61513 l 5.97581,-0.33413 a 64.47667,64.47667 0 0 0 -43.1245,-26.65136 c -12.92583,-1.87346 -27.31837,0.83756 -36.182,10.43045 -4.29926,4.653 -7.00067,10.57018 -8.92232,16.60685 -3.53926,11.11821 -4.26038,24.3719 3.11964,33.40938 7.5006,9.18513 20.602,10.98439 32.40592,12.12114 4.15328,0.4 8.50581,0.77216 12.35457,-0.83928 a 29.721,29.721 0 0 0 -1.6539,-13.03688 8.68665,8.68665 0 0 1 -0.87879,-4.15246 c 0.5247,-3.51164 5.20884,-4.39635 8.72762,-3.9219 3.51878,0.47445 7.74984,1.20031 10.062,-1.49432 1.59261,-1.85609 1.49867,-4.559 1.70967,-6.99575 0.57446,-6.63366 13.12785,-7.71213 13.18798,-9.10281 z"
       transform="translate(-201.25,-32.75)"
       fill="#2f2e41"
       id="path36" />
  </g>
</svg>
