<?xml version="1.0" encoding="UTF-8" standalone="no"?>
<svg
   xmlns:dc="http://purl.org/dc/elements/1.1/"
   xmlns:cc="http://creativecommons.org/ns#"
   xmlns:rdf="http://www.w3.org/1999/02/22-rdf-syntax-ns#"
   xmlns:svg="http://www.w3.org/2000/svg"
   xmlns="http://www.w3.org/2000/svg"
   xmlns:sodipodi="http://sodipodi.sourceforge.net/DTD/sodipodi-0.dtd"
   xmlns:inkscape="http://www.inkscape.org/namespaces/inkscape"
   id="a0910be2-6cb3-414b-9b74-c9f97494131d"
   data-name="Layer 1"
   width="887"
   height="793"
   viewBox="0 0 887 793"
   version="1.1"
   sodipodi:docname="undraw_lost_online_wqob.svg"
   inkscape:version="1.0.1 (1.0.1+r74)">
  <metadata
     id="metadata95">
    <rdf:RDF>
      <cc:Work
         rdf:about="">
        <dc:format>image/svg+xml</dc:format>
        <dc:type
           rdf:resource="http://purl.org/dc/dcmitype/StillImage" />
      </cc:Work>
    </rdf:RDF>
  </metadata>
  <defs
     id="defs93" />
  <sodipodi:namedview
     pagecolor="#ffffff"
     bordercolor="#666666"
     borderopacity="1"
     objecttolerance="10"
     gridtolerance="10"
     guidetolerance="10"
     inkscape:pageopacity="0"
     inkscape:pageshadow="2"
     inkscape:window-width="1920"
     inkscape:window-height="1008"
     id="namedview91"
     showgrid="false"
     inkscape:zoom="1.0310812"
     inkscape:cx="443.5"
     inkscape:cy="396.5"
     inkscape:window-x="0"
     inkscape:window-y="0"
     inkscape:window-maximized="1"
     inkscape:current-layer="a0910be2-6cb3-414b-9b74-c9f97494131d" />
  <title
     id="title2">lost_online</title>
  <path
     d="M0,0H886a0,0,0,0,1,0,0V.00073A733.99927,733.99927,0,0,1,152.00073,734H0a0,0,0,0,1,0,0V0A0,0,0,0,1,0,0Z"
     fill="#3f3d56"
     id="path6" />
  <circle
     cx="652.85898"
     cy="178.42493"
     r="71.88313"
     fill="#f2f2f2"
     id="circle8" />
  <circle
     cx="432.07507"
     cy="32.60485"
     r="6.16141"
     fill="#ff6584"
     id="circle10" />
  <circle
     cx="632.32095"
     cy="445.41942"
     r="6.16141"
     fill="#ff6584"
     id="circle12" />
  <circle
     cx="652.85898"
     cy="32.60485"
     r="6.16141"
     fill="#f2f2f2"
     id="circle14" />
  <circle
     cx="739.11874"
     cy="329.37951"
     r="6.16141"
     fill="#f2f2f2"
     id="circle16" />
  <circle
     cx="493.68919"
     cy="198.96296"
     r="6.16141"
     fill="#f2f2f2"
     id="circle18" />
  <circle
     cx="168.16128"
     cy="157.88689"
     r="6.16141"
     fill="#f2f2f2"
     id="circle20" />
  <circle
     cx="284.2012"
     cy="413.58546"
     r="209.48799"
     fill="#79e08f"
     id="circle22" />
  <circle
     cx="274.95908"
     cy="328.3526"
     r="30.80706"
     opacity="0.2"
     id="circle24" />
  <circle
     cx="274.95908"
     cy="534.75989"
     r="53.3989"
     opacity="0.2"
     id="circle26" />
  <circle
     cx="119.89689"
     cy="453.63464"
     r="13.34972"
     opacity="0.2"
     id="circle28" />
  <circle
     cx="646.60588"
     cy="141.34643"
     r="7.09663"
     opacity="0.2"
     id="circle30" />
  <circle
     cx="345.72362"
     cy="282.03199"
     r="7.09663"
     opacity="0.2"
     id="circle32" />
  <circle
     cx="265.71696"
     cy="422.82758"
     r="9.24212"
     opacity="0.2"
     id="circle34" />
  <circle
     cx="629.33193"
     cy="198.04609"
     r="7.09663"
     opacity="0.2"
     id="circle36" />
  <circle
     cx="438.32817"
     cy="372.61941"
     r="7.09663"
     opacity="0.2"
     id="circle38" />
  <circle
     cx="692.9265"
     cy="191.35289"
     r="10.25068"
     opacity="0.2"
     id="circle40" />
  <circle
     cx="379.72141"
     cy="444.99766"
     r="10.25068"
     opacity="0.2"
     id="circle42" />
  <circle
     cx="154.81156"
     cy="328.3526"
     r="13.34972"
     opacity="0.2"
     id="circle44" />
  <path
     d="M486.08946,587.8377a586.0229,586.0229,0,0,1-65.92931-3.80977c-65.831-7.47613-126.5456-25.142-170.95911-49.74257-44.957-24.90237-67.96155-54.06077-64.777-82.104,2.20623-19.42891,20.9853-36.81905,57.40973-53.16223a2.05428,2.05428,0,0,1,1.68175,3.74859c-34.98737,15.69736-52.98122,32.01246-55.00995,49.87695-2.98544,26.28527,19.277,54.0026,62.68614,78.04755,43.95221,24.3458,104.12425,41.83723,169.4318,49.25419,65.308,7.417,127.86934,3.86291,176.16181-10.00628,47.69579-13.69871,75.60666-35.71794,78.59109-62.00321,2.01971-17.78226-7.775-36.63654-28.325-54.52609a2.05423,2.05423,0,0,1,2.69762-3.09876c21.61508,18.81718,31.88812,38.90394,29.709,58.08815-3.185,28.04325-32.14183,51.301-81.53842,65.48706C565.75809,583.12438,527.37062,587.8377,486.08946,587.8377Z"
     transform="translate(-156.5 -53.5)"
     fill="#fff"
     id="path46" />
  <circle
     cx="824.1524"
     cy="70.058685"
     r="7.27772"
     fill="#79e08f"
     id="circle88" />
</svg>
